<svg width="26" height="24" viewBox="0 0 26 24" fill="none" xmlns="http://www.w3.org/2000/svg">
<path d="M10.5251 4.83676C11.5739 2.2221 12.0983 0.914764 13 0.914764C13.9018 0.914764 14.4262 2.2221 15.475 4.83676L15.5239 4.95852C16.1164 6.43567 16.4126 7.17425 17.0164 7.62317C17.6202 8.07209 18.4129 8.14307 19.9981 8.28504L20.2847 8.31071C22.8791 8.54306 24.1763 8.65924 24.4539 9.48455C24.7314 10.3099 23.7681 11.1863 21.8413 12.9392L21.1983 13.5243C20.223 14.4116 19.7353 14.8553 19.508 15.4368C19.4656 15.5453 19.4303 15.6564 19.4025 15.7695C19.2531 16.3757 19.3959 17.0194 19.6815 18.3066L19.7704 18.7073C20.2953 21.0731 20.5577 22.256 20.0995 22.7662C19.9283 22.9569 19.7057 23.0942 19.4585 23.1616C18.7969 23.3421 17.8576 22.5767 15.979 21.046C14.7454 20.0408 14.1286 19.5382 13.4205 19.4251C13.142 19.3806 12.8581 19.3806 12.5796 19.4251C11.8714 19.5382 11.2547 20.0408 10.0211 21.046C8.1425 22.5767 7.2032 23.3421 6.5416 23.1616C6.29437 23.0942 6.07183 22.9569 5.90059 22.7662C5.44236 22.256 5.7048 21.0731 6.2297 18.7073L6.31861 18.3066C6.60422 17.0194 6.74702 16.3757 6.59762 15.7695C6.56975 15.6564 6.5345 15.5453 6.4921 15.4368C6.2648 14.8553 5.77713 14.4116 4.80179 13.5243L4.15874 12.9392C2.23202 11.1863 1.26866 10.3099 1.54623 9.48455C1.8238 8.65924 3.12101 8.54306 5.71543 8.31071L6.00201 8.28504C7.58723 8.14307 8.37984 8.07209 8.98364 7.62317C9.58744 7.17425 9.8837 6.43567 10.4762 4.95851L10.5251 4.83676Z" stroke="#3E68A8" stroke-width="1.5"/>
</svg>
