<svg width="48" height="48" viewBox="0 0 48 48" fill="none" xmlns="http://www.w3.org/2000/svg">
<path d="M12 21.6569C12 20.8394 12 20.4306 12.1522 20.0631C12.3045 19.6955 12.5935 19.4065 13.1716 18.8284L16.8284 15.1716C17.4065 14.5935 17.6955 14.3045 18.0631 14.1522C18.4306 14 18.8394 14 19.6569 14H28.3431C29.1606 14 29.5694 14 29.9369 14.1522C30.3045 14.3045 30.5935 14.5935 31.1716 15.1716L34.8284 18.8284C35.4065 19.4065 35.6955 19.6955 35.8478 20.0631C36 20.4306 36 20.8394 36 21.6569V36C36 37.8856 36 38.8284 35.4142 39.4142C34.8284 40 33.8856 40 32 40H16C14.1144 40 13.1716 40 12.5858 39.4142C12 38.8284 12 37.8856 12 36V21.6569Z" stroke="#828282" stroke-width="2"/>
<path d="M18 14L12.1387 10.0925C12.0547 10.0365 11.9453 10.0365 11.8613 10.0924L6.25373 13.8308C6.12247 13.9184 6.10408 14.1041 6.21563 14.2156L11.5858 19.5858C11.851 19.851 12 20.2107 12 20.5858V20.5858C12 21.3668 12.6332 22 13.4142 22H34.5858C35.3668 22 36 21.3668 36 20.5858V20.5858C36 20.2107 36.149 19.851 36.4142 19.5858L41.7844 14.2156C41.8959 14.1041 41.8775 13.9184 41.7463 13.8308L36.1387 10.0924C36.0547 10.0365 35.9453 10.0365 35.8613 10.0925L30 14" stroke="#828282" stroke-width="2" stroke-linecap="round"/>
</svg>
