<svg width="48" height="48" viewBox="0 0 48 48" fill="none" xmlns="http://www.w3.org/2000/svg">
<path fill-rule="evenodd" clip-rule="evenodd" d="M24 42C33.9411 42 42 33.9411 42 24C42 14.0589 33.9411 6 24 6C14.0589 6 6 14.0589 6 24C6 33.9411 14.0589 42 24 42ZM33.1523 18.9603C33.6827 18.3239 33.5967 17.378 32.9603 16.8477C32.3239 16.3173 31.378 16.4033 30.8477 17.0397L22.2497 27.3573C22.1113 27.5234 21.9985 27.6586 21.899 27.774C21.7895 27.6681 21.6649 27.5436 21.512 27.3907L17.0607 22.9393C16.4749 22.3536 15.5251 22.3536 14.9393 22.9393C14.3536 23.5251 14.3536 24.4749 14.9393 25.0607L19.3907 29.5121L19.4427 29.564C19.7585 29.8801 20.0955 30.2173 20.4164 30.46C20.7894 30.742 21.3321 31.0484 22.0461 31.016C22.7601 30.9836 23.2728 30.6294 23.6188 30.3147C23.9164 30.044 24.2214 29.6777 24.5074 29.3343L24.5544 29.2778L33.1523 18.9603Z" fill="#2D2D2D"/>
</svg>
