<svg width="44" height="44" viewBox="0 0 44 44" fill="none" xmlns="http://www.w3.org/2000/svg">
<circle cx="22" cy="22" r="22" fill="#FEDCC1" fill-opacity="0.5"/>
<path d="M13.875 29.5H30.125M15.125 14.5V29.5M23.875 14.5V29.5M28.875 18.25V29.5M17.625 17.625H18.25M17.625 20.125H18.25M17.625 22.625H18.25M20.75 17.625H21.375M20.75 20.125H21.375M20.75 22.625H21.375M17.625 29.5V26.6875C17.625 26.17 18.045 25.75 18.5625 25.75H20.4375C20.955 25.75 21.375 26.17 21.375 26.6875V29.5M14.5 14.5H24.5M23.875 18.25H29.5M26.375 21.375H26.3817V21.3817H26.375V21.375ZM26.375 23.875H26.3817V23.8817H26.375V23.875ZM26.375 26.375H26.3817V26.3817H26.375V26.375Z" stroke="#F15640" stroke-width="1.5" stroke-linecap="round" stroke-linejoin="round"/>
</svg>
