<svg width="44" height="44" viewBox="0 0 44 44" fill="none" xmlns="http://www.w3.org/2000/svg">
<circle cx="22" cy="22" r="22" fill="#FEDCC1" fill-opacity="0.5"/>
<path d="M28.875 19.0925C29.6117 19.3292 30.125 20.0325 30.125 20.84V24.4117C30.125 25.3583 29.4192 26.1617 28.475 26.2392C28.1917 26.2617 27.9083 26.2825 27.625 26.2992V28.875L25.125 26.375C23.9967 26.375 22.88 26.3292 21.775 26.2392C21.5344 26.2197 21.3004 26.1511 21.0875 26.0375M28.875 19.0925C28.7462 19.0511 28.6131 19.0245 28.4783 19.0133C26.2466 18.8281 24.0034 18.8281 21.7717 19.0133C20.8292 19.0917 20.125 19.8942 20.125 20.84V24.4117C20.125 25.1092 20.5083 25.7283 21.0875 26.0375M28.875 19.0925V17.5308C28.875 16.18 27.915 15.0092 26.575 14.835C24.8507 14.6115 23.1137 14.4996 21.375 14.5C19.6125 14.5 17.8767 14.6142 16.175 14.835C14.835 15.0092 13.875 16.18 13.875 17.5308V22.7192C13.875 24.07 14.835 25.2408 16.175 25.415C16.6558 25.4775 17.1392 25.5317 17.625 25.5767V29.5L21.0875 26.0375" stroke="#F15640" stroke-width="1.5" stroke-linecap="round" stroke-linejoin="round"/>
</svg>
