<svg width="13" height="13" viewBox="0 0 13 13" fill="none" xmlns="http://www.w3.org/2000/svg">
<path fill-rule="evenodd" clip-rule="evenodd" d="M6.59998 12.6001C9.91368 12.6001 12.6 9.91381 12.6 6.6001C12.6 3.28639 9.91368 0.600098 6.59998 0.600098C3.28627 0.600098 0.599976 3.28639 0.599976 6.6001C0.599976 9.91381 3.28627 12.6001 6.59998 12.6001ZM10.0349 5.24039C10.3885 4.81611 10.3312 4.18555 9.90688 3.83198C9.4826 3.47842 8.85204 3.53574 8.49847 3.96002L6.56719 6.27757C6.22047 6.69363 6.02556 6.92397 5.86994 7.06552L5.86399 7.0709L5.85758 7.06608C5.68979 6.9392 5.47482 6.72745 5.09186 6.34449L4.64047 5.8931C4.24995 5.50257 3.61678 5.50257 3.22626 5.8931C2.83573 6.28362 2.83573 6.91679 3.22626 7.30731L3.67765 7.7587L3.71847 7.79954C4.04497 8.12616 4.35906 8.44037 4.6513 8.66135C4.97867 8.90889 5.40738 9.14166 5.95679 9.11674C6.5062 9.09182 6.91209 8.82119 7.2157 8.54502C7.48673 8.29849 7.77108 7.95714 8.06667 7.6023L8.10363 7.55793L10.0349 5.24039Z" fill="#1AAA3A"/>
</svg>
