<svg width="44" height="44" viewBox="0 0 44 44" fill="none" xmlns="http://www.w3.org/2000/svg">
<circle cx="22" cy="22" r="22" fill="#FEDCC1" fill-opacity="0.5"/>
<path d="M19.1875 22C19.1875 22.0829 19.1546 22.1624 19.096 22.221C19.0374 22.2796 18.9579 22.3125 18.875 22.3125C18.7921 22.3125 18.7126 22.2796 18.654 22.221C18.5954 22.1624 18.5625 22.0829 18.5625 22C18.5625 21.9171 18.5954 21.8376 18.654 21.779C18.7126 21.7204 18.7921 21.6875 18.875 21.6875C18.9579 21.6875 19.0374 21.7204 19.096 21.779C19.1546 21.8376 19.1875 21.9171 19.1875 22ZM19.1875 22H18.875M22.3125 22C22.3125 22.0829 22.2796 22.1624 22.221 22.221C22.1624 22.2796 22.0829 22.3125 22 22.3125C21.9171 22.3125 21.8376 22.2796 21.779 22.221C21.7204 22.1624 21.6875 22.0829 21.6875 22C21.6875 21.9171 21.7204 21.8376 21.779 21.779C21.8376 21.7204 21.9171 21.6875 22 21.6875C22.0829 21.6875 22.1624 21.7204 22.221 21.779C22.2796 21.8376 22.3125 21.9171 22.3125 22ZM22.3125 22H22M25.4375 22C25.4375 22.0829 25.4046 22.1624 25.346 22.221C25.2874 22.2796 25.2079 22.3125 25.125 22.3125C25.0421 22.3125 24.9626 22.2796 24.904 22.221C24.8454 22.1624 24.8125 22.0829 24.8125 22C24.8125 21.9171 24.8454 21.8376 24.904 21.779C24.9626 21.7204 25.0421 21.6875 25.125 21.6875C25.2079 21.6875 25.2874 21.7204 25.346 21.779C25.4046 21.8376 25.4375 21.9171 25.4375 22ZM25.4375 22H25.125M29.5 22C29.5 22.9849 29.306 23.9602 28.9291 24.8701C28.5522 25.7801 27.9997 26.6069 27.3033 27.3033C26.6069 27.9997 25.7801 28.5522 24.8701 28.9291C23.9602 29.306 22.9849 29.5 22 29.5C21.0151 29.5 20.0398 29.306 19.1299 28.9291C18.2199 28.5522 17.3931 27.9997 16.6967 27.3033C16.0003 26.6069 15.4478 25.7801 15.0709 24.8701C14.694 23.9602 14.5 22.9849 14.5 22C14.5 20.0109 15.2902 18.1032 16.6967 16.6967C18.1032 15.2902 20.0109 14.5 22 14.5C23.9891 14.5 25.8968 15.2902 27.3033 16.6967C28.7098 18.1032 29.5 20.0109 29.5 22Z" stroke="#F15640" stroke-width="1.5" stroke-linecap="round" stroke-linejoin="round"/>
</svg>
