<svg width="44" height="44" viewBox="0 0 44 44" fill="none" xmlns="http://www.w3.org/2000/svg">
<circle cx="22" cy="22" r="22" fill="#FEDCC1" fill-opacity="0.5"/>
<path d="M22 28.75C26.1417 28.75 29.5 25.6717 29.5 21.875C29.5 18.0783 26.1417 15 22 15C17.8583 15 14.5 18.0783 14.5 21.875C14.5 23.6283 15.2158 25.2275 16.3942 26.4417C16.7542 26.8142 17.0108 27.3083 16.8825 27.8092C16.742 28.3568 16.479 28.8654 16.1133 29.2967C16.406 29.3492 16.7027 29.3754 17 29.375C18.0683 29.375 19.0583 29.04 19.8708 28.4692C20.5458 28.6525 21.2608 28.75 22 28.75Z" stroke="#F15640" stroke-width="1.5" stroke-linecap="round" stroke-linejoin="round"/>
<g clip-path="url(#clip0_1427_2844)">
<path d="M21.271 23.3013L21 24.25L20.729 23.3013C20.659 23.0563 20.5276 22.8331 20.3474 22.6529C20.1672 22.4727 19.944 22.3414 19.699 22.2713L18.75 22L19.6987 21.729C19.9437 21.659 20.1669 21.5276 20.3471 21.3474C20.5273 21.1672 20.6586 20.944 20.7287 20.699L21 19.75L21.271 20.6987C21.341 20.9437 21.4724 21.1669 21.6526 21.3471C21.8328 21.5273 22.056 21.6586 22.301 21.7287L23.25 22L22.3013 22.271C22.0563 22.341 21.8331 22.4724 21.6529 22.6526C21.4727 22.8328 21.3414 23.056 21.2713 23.301L21.271 23.3013ZM24.0863 20.905L24 21.25L23.9137 20.905C23.8642 20.7072 23.762 20.5265 23.6179 20.3823C23.4737 20.2381 23.2931 20.1358 23.0953 20.0863L22.75 20L23.0953 19.9137C23.2931 19.8642 23.4737 19.7619 23.6179 19.6177C23.762 19.4735 23.8642 19.2928 23.9137 19.095L24 18.75L24.0863 19.095C24.1358 19.2928 24.2381 19.4735 24.3823 19.6177C24.5265 19.7619 24.7072 19.8642 24.905 19.9137L25.25 20L24.905 20.0863C24.7072 20.1358 24.5265 20.2381 24.3823 20.3823C24.2381 20.5265 24.1358 20.7072 24.0863 20.905ZM23.6313 24.8557L23.5 25.25L23.3687 24.8557C23.3318 24.7452 23.2698 24.6448 23.1875 24.5625C23.1052 24.4802 23.0048 24.4182 22.8943 24.3813L22.5 24.25L22.8943 24.1187C23.0048 24.0818 23.1052 24.0198 23.1875 23.9375C23.2698 23.8552 23.3318 23.7548 23.3687 23.6443L23.5 23.25L23.6313 23.6443C23.6682 23.7548 23.7302 23.8552 23.8125 23.9375C23.8948 24.0198 23.9952 24.0818 24.1057 24.1187L24.5 24.25L24.1057 24.3813C23.9952 24.4182 23.8948 24.4802 23.8125 24.5625C23.7302 24.6448 23.6682 24.7452 23.6313 24.8557Z" stroke="#F15640" stroke-linecap="round" stroke-linejoin="round"/>
</g>
<defs>
<clipPath id="clip0_1427_2844">
<rect width="8" height="8" fill="white" transform="translate(18 18)"/>
</clipPath>
</defs>
</svg>
