<svg width="17" height="20" viewBox="0 0 17 20" fill="none" xmlns="http://www.w3.org/2000/svg">
<path d="M14.6428 5.77566L1.72391 1.46937C1.4236 1.36927 1.27344 1.31921 1.16962 1.39405C1.0658 1.46888 1.0658 1.62716 1.0658 1.94371V11.25L14.6428 6.72434C15.2311 6.52824 15.5252 6.43019 15.5252 6.25C15.5252 6.06981 15.2311 5.97176 14.6428 5.77566Z" fill="#86C4CC"/>
<path d="M1.0658 11.25V1.94371C1.0658 1.62716 1.0658 1.46888 1.16962 1.39405C1.27344 1.31921 1.4236 1.36927 1.72391 1.46937L14.6428 5.77566C15.2311 5.97176 15.5252 6.06981 15.5252 6.25C15.5252 6.43019 15.2311 6.52824 14.6428 6.72434L1.0658 11.25ZM1.0658 11.25V17.5V18.75" stroke="#86C4CC" stroke-width="2" stroke-linecap="round"/>
</svg>
