<svg width="44" height="44" viewBox="0 0 44 44" fill="none" xmlns="http://www.w3.org/2000/svg">
<path d="M22 0C16.1615 0 11.4286 4.73299 11.4286 10.5714C11.4286 11.0448 11.0448 11.4286 10.5714 11.4286C4.73299 11.4286 0 16.1615 0 22C0 27.8385 4.73299 32.5715 10.5714 32.5715C11.0448 32.5715 11.4286 32.9552 11.4286 33.4285C11.4286 39.267 16.1615 44 22 44C27.8385 44 32.5715 39.267 32.5715 33.4285C32.5715 32.9552 32.9552 32.5715 33.4285 32.5715C39.267 32.5715 44 27.8385 44 22C44 16.1615 39.267 11.4286 33.4285 11.4286C32.9552 11.4286 32.5715 11.0448 32.5715 10.5714C32.5715 4.73299 27.8385 0 22 0Z" fill="#F1573F"/>
</svg>
