<svg width="44" height="44" viewBox="0 0 44 44" fill="none" xmlns="http://www.w3.org/2000/svg">
<circle cx="22" cy="22" r="22" fill="#FEDCC1" fill-opacity="0.5"/>
<path d="M26.3333 31.3333C27.7222 31.3333 28.9028 30.8472 29.875 29.875C30.8472 28.9028 31.3333 27.7222 31.3333 26.3333H30.0833C30.0833 27.375 29.7188 28.2604 28.9896 28.9896C28.2604 29.7188 27.375 30.0833 26.3333 30.0833V31.3333ZM13 18H14.25C14.25 16.9583 14.6146 16.0729 15.3438 15.3438C16.0729 14.6146 16.9583 14.25 18 14.25V13C16.6111 13 15.4306 13.4861 14.4583 14.4583C13.4861 15.4306 13 16.6111 13 18ZM15.1042 29.2292C13.7569 27.8819 13.0833 26.2639 13.0833 24.375C13.0833 22.4861 13.7569 20.8681 15.1042 19.5208L18.1875 16.4167C18.5486 16.0556 18.9896 15.875 19.5104 15.875C20.0313 15.875 20.4722 16.0556 20.8333 16.4167C20.8889 16.4583 20.9514 16.5278 21.0208 16.625L21.2292 16.9167L23.6458 14.5C24.0069 14.1389 24.4479 13.9583 24.9688 13.9583C25.4896 13.9583 25.9306 14.1389 26.2917 14.5C26.375 14.5972 26.4479 14.6944 26.5104 14.7917C26.5729 14.8889 26.6181 14.9722 26.6458 15.0417C26.9931 14.6944 27.4201 14.5278 27.9271 14.5417C28.434 14.5556 28.8681 14.7431 29.2292 15.1042C29.5069 15.3819 29.6736 15.7257 29.7292 16.1354C29.7847 16.5451 29.7222 16.9514 29.5417 17.3542C29.6528 17.3958 29.7569 17.4514 29.8542 17.5208C29.9514 17.5903 30.0417 17.6667 30.125 17.75C30.4861 18.1111 30.6667 18.5521 30.6667 19.0729C30.6667 19.5938 30.4861 20.0347 30.125 20.3958L29.6042 20.9167C29.7014 20.9583 29.7951 21.0139 29.8854 21.0833C29.9757 21.1528 30.0556 21.2222 30.125 21.2917C30.4861 21.6528 30.6701 22.0938 30.6771 22.6146C30.684 23.1354 30.5 23.5764 30.125 23.9375L24.8125 29.2292C23.4653 30.5764 21.8472 31.25 19.9583 31.25C18.0694 31.25 16.4514 30.5764 15.1042 29.2292ZM15.9792 28.3542C16.5347 28.9097 17.1562 29.3229 17.8438 29.5938C18.5312 29.8646 19.2361 30 19.9583 30C20.6806 30 21.3854 29.8646 22.0729 29.5938C22.7604 29.3229 23.3819 28.9097 23.9375 28.3542L29.2292 23.0417C29.3542 22.9167 29.4167 22.7674 29.4167 22.5938C29.4167 22.4201 29.3542 22.2778 29.2292 22.1667C29.1042 22.0417 28.9583 21.9792 28.7917 21.9792C28.625 21.9792 28.4792 22.0417 28.3542 22.1667L25.4167 25.1042L24.5208 24.2292L29.2292 19.5208C29.3542 19.3958 29.4167 19.2465 29.4167 19.0729C29.4167 18.8993 29.3542 18.75 29.2292 18.625C29.1042 18.5 28.9583 18.4375 28.7917 18.4375C28.625 18.4375 28.4792 18.5 28.3542 18.625L24.2292 22.75L23.3542 21.875L28.3542 16.8542C28.4792 16.7292 28.5382 16.5799 28.5313 16.4063C28.5243 16.2326 28.4653 16.0903 28.3542 15.9792C28.2292 15.8542 28.0833 15.7917 27.9167 15.7917C27.75 15.7917 27.6042 15.8542 27.4792 15.9792L22.4583 20.9792L21.5833 20.1042L25.4167 16.2708C25.5417 16.1458 25.6007 15.9965 25.5938 15.8229C25.5868 15.6493 25.5278 15.5069 25.4167 15.3958C25.2917 15.2708 25.1424 15.2083 24.9688 15.2083C24.7951 15.2083 24.6458 15.2708 24.5208 15.3958L19.0208 20.8958C19.3125 21.6181 19.4028 22.3542 19.2917 23.1042C19.1806 23.8542 18.8611 24.5208 18.3333 25.1042L17.4583 24.2292C17.9028 23.7153 18.125 23.125 18.125 22.4583C18.125 21.7917 17.9028 21.2014 17.4583 20.6875L19.9583 18.1875C20.0833 18.0625 20.1424 17.9132 20.1354 17.7396C20.1285 17.566 20.0694 17.4236 19.9583 17.3125C19.8333 17.1875 19.6875 17.125 19.5208 17.125C19.3542 17.125 19.2083 17.1875 19.0833 17.3125L15.9792 20.3958C15.4236 20.9514 15.0104 21.5729 14.7396 22.2604C14.4688 22.9479 14.3333 23.6528 14.3333 24.375C14.3333 25.0972 14.4688 25.8021 14.7396 26.4896C15.0104 27.1771 15.4236 27.7986 15.9792 28.3542Z" fill="#F15640"/>
</svg>
