<svg width="48" height="48" viewBox="0 0 48 48" fill="none" xmlns="http://www.w3.org/2000/svg">
<path d="M6 42.5143H15V26.0571H33V42.5143H42V17.8286L24 5.48571L6 17.8286V42.5143ZM6 48C4.35 48 2.938 47.4633 1.764 46.3899C0.587999 45.3147 0 44.0229 0 42.5143V17.8286C0 16.96 0.212999 16.1371 0.638999 15.36C1.063 14.5829 1.65 13.9429 2.4 13.44L20.4 1.09714C20.95 0.731429 21.525 0.457143 22.125 0.274285C22.725 0.0914283 23.35 0 24 0C24.65 0 25.275 0.0914283 25.875 0.274285C26.475 0.457143 27.05 0.731429 27.6 1.09714L45.6 13.44C46.35 13.9429 46.938 14.5829 47.364 15.36C47.788 16.1371 48 16.96 48 17.8286V42.5143C48 44.0229 47.413 45.3147 46.239 46.3899C45.063 47.4633 43.65 48 42 48H27V31.5429H21V48H6Z" fill="#75817E"/>
</svg>
