<svg width="44" height="44" viewBox="0 0 44 44" fill="none" xmlns="http://www.w3.org/2000/svg">
<circle cx="22" cy="22" r="22" fill="#FEDCC1" fill-opacity="0.5"/>
<path d="M22 25.125V18.875M22 18.875L19.1875 21.6875M22 18.875L24.8125 21.6875" stroke="#F15640" stroke-width="1.5" stroke-linecap="round" stroke-linejoin="round"/>
<path d="M22 28.75C26.1417 28.75 29.5 25.6717 29.5 21.875C29.5 18.0783 26.1417 15 22 15C17.8583 15 14.5 18.0783 14.5 21.875C14.5 23.6283 15.2158 25.2275 16.3942 26.4417C16.7542 26.8142 17.0108 27.3083 16.8825 27.8092C16.742 28.3568 16.479 28.8654 16.1133 29.2967C16.406 29.3492 16.7027 29.3754 17 29.375C18.0683 29.375 19.0583 29.04 19.8708 28.4692C20.5458 28.6525 21.2608 28.75 22 28.75Z" stroke="#F15640" stroke-width="1.5" stroke-linecap="round" stroke-linejoin="round"/>
</svg>
