<svg width="48" height="48" viewBox="0 0 48 48" fill="none" xmlns="http://www.w3.org/2000/svg">
<path d="M14.4 0H33.6C37.4191 0 41.0818 1.51714 43.7823 4.21766C46.4829 6.91819 48 10.5809 48 14.4V33.6C48 37.4191 46.4829 41.0818 43.7823 43.7823C41.0818 46.4829 37.4191 48 33.6 48H14.4C10.5809 48 6.91819 46.4829 4.21766 43.7823C1.51714 41.0818 0 37.4191 0 33.6L0 14.4C0 10.5809 1.51714 6.91819 4.21766 4.21766C6.91819 1.51714 10.5809 0 14.4 0ZM28.8 21.6C28.1635 21.6 27.553 21.8529 27.1029 22.3029C26.6529 22.753 26.4 23.3635 26.4 24C26.4 24.6365 26.6529 25.247 27.1029 25.6971C27.553 26.1471 28.1635 26.4 28.8 26.4H36C36.6365 26.4 37.247 26.1471 37.6971 25.6971C38.1471 25.247 38.4 24.6365 38.4 24C38.4 23.3635 38.1471 22.753 37.6971 22.3029C37.247 21.8529 36.6365 21.6 36 21.6H28.8ZM24 31.2C23.3635 31.2 22.753 31.4529 22.3029 31.9029C21.8529 32.353 21.6 32.9635 21.6 33.6C21.6 34.2365 21.8529 34.847 22.3029 35.2971C22.753 35.7471 23.3635 36 24 36H36C36.6365 36 37.247 35.7471 37.6971 35.2971C38.1471 34.847 38.4 34.2365 38.4 33.6C38.4 32.9635 38.1471 32.353 37.6971 31.9029C37.247 31.4529 36.6365 31.2 36 31.2H24ZM24 12C23.3635 12 22.753 12.2529 22.3029 12.7029C21.8529 13.153 21.6 13.7635 21.6 14.4C21.6 15.0365 21.8529 15.647 22.3029 16.0971C22.753 16.5471 23.3635 16.8 24 16.8H36C36.6365 16.8 37.247 16.5471 37.6971 16.0971C38.1471 15.647 38.4 15.0365 38.4 14.4C38.4 13.7635 38.1471 13.153 37.6971 12.7029C37.247 12.2529 36.6365 12 36 12H24ZM13.9872 24.5832L12.2904 22.8864C12.069 22.6572 11.8042 22.4743 11.5114 22.3486C11.2186 22.2228 10.9036 22.1566 10.585 22.1538C10.2663 22.151 9.95026 22.2118 9.65531 22.3324C9.36036 22.4531 9.0924 22.6313 8.86705 22.8567C8.64171 23.082 8.4635 23.35 8.34283 23.6449C8.22215 23.9399 8.16143 24.2559 8.1642 24.5746C8.16697 24.8932 8.23318 25.2082 8.35896 25.501C8.48474 25.7938 8.66758 26.0586 8.8968 26.28L12.2904 29.6736C12.5133 29.8967 12.778 30.0738 13.0693 30.1945C13.3607 30.3153 13.673 30.3775 13.9884 30.3775C14.3038 30.3775 14.6161 30.3153 14.9075 30.1945C15.1988 30.0738 15.4635 29.8967 15.6864 29.6736L22.4736 22.8864C22.9243 22.4364 23.1777 21.8258 23.1781 21.1889C23.1786 20.552 22.926 19.9411 22.476 19.4904C22.026 19.0397 21.4154 18.7863 20.7785 18.7859C20.1416 18.7854 19.5307 19.038 19.08 19.488L13.9872 24.5808V24.5832Z" fill="#75817E"/>
</svg>
