<svg width="48" height="48" viewBox="0 0 48 48" fill="none" xmlns="http://www.w3.org/2000/svg">
<path d="M14.4 0H33.6C37.4191 0 41.0818 1.51714 43.7823 4.21766C46.4829 6.91819 48 10.5809 48 14.4V33.6C48 37.4191 46.4829 41.0818 43.7823 43.7823C41.0818 46.4829 37.4191 48 33.6 48H14.4C10.5809 48 6.91819 46.4829 4.21766 43.7823C1.51714 41.0818 0 37.4191 0 33.6L0 14.4C0 10.5809 1.51714 6.91819 4.21766 4.21766C6.91819 1.51714 10.5809 0 14.4 0ZM14.4 4.8C11.8539 4.8 9.41212 5.81143 7.61178 7.61178C5.81143 9.41212 4.8 11.8539 4.8 14.4V33.6C4.8 36.1461 5.81143 38.5879 7.61178 40.3882C9.41212 42.1886 11.8539 43.2 14.4 43.2H33.6C36.1461 43.2 38.5879 42.1886 40.3882 40.3882C42.1886 38.5879 43.2 36.1461 43.2 33.6V14.4C43.2 11.8539 42.1886 9.41212 40.3882 7.61178C38.5879 5.81143 36.1461 4.8 33.6 4.8H14.4ZM28.8 21.6H36C36.6365 21.6 37.247 21.8529 37.6971 22.3029C38.1471 22.753 38.4 23.3635 38.4 24C38.4 24.6365 38.1471 25.247 37.6971 25.6971C37.247 26.1471 36.6365 26.4 36 26.4H28.8C28.1635 26.4 27.553 26.1471 27.1029 25.6971C26.6529 25.247 26.4 24.6365 26.4 24C26.4 23.3635 26.6529 22.753 27.1029 22.3029C27.553 21.8529 28.1635 21.6 28.8 21.6ZM24 31.2H36C36.6365 31.2 37.247 31.4529 37.6971 31.9029C38.1471 32.353 38.4 32.9635 38.4 33.6C38.4 34.2365 38.1471 34.847 37.6971 35.2971C37.247 35.7471 36.6365 36 36 36H24C23.3635 36 22.753 35.7471 22.3029 35.2971C21.8529 34.847 21.6 34.2365 21.6 33.6C21.6 32.9635 21.8529 32.353 22.3029 31.9029C22.753 31.4529 23.3635 31.2 24 31.2ZM24 12H36C36.6365 12 37.247 12.2529 37.6971 12.7029C38.1471 13.153 38.4 13.7635 38.4 14.4C38.4 15.0365 38.1471 15.647 37.6971 16.0971C37.247 16.5471 36.6365 16.8 36 16.8H24C23.3635 16.8 22.753 16.5471 22.3029 16.0971C21.8529 15.647 21.6 15.0365 21.6 14.4C21.6 13.7635 21.8529 13.153 22.3029 12.7029C22.753 12.2529 23.3635 12 24 12ZM13.9872 24.5832L19.08 19.488C19.303 19.2652 19.5677 19.0884 19.859 18.9679C20.1502 18.8474 20.4624 18.7854 20.7776 18.7855C21.0929 18.7856 21.405 18.8478 21.6962 18.9686C21.9874 19.0893 22.252 19.2662 22.4748 19.4892C22.6976 19.7122 22.8744 19.9769 22.9949 20.2682C23.1154 20.5594 23.1774 20.8716 23.1773 21.1868C23.1772 21.5021 23.115 21.8142 22.9942 22.1054C22.8735 22.3966 22.6966 22.6612 22.4736 22.884L15.6864 29.6712C15.4635 29.8943 15.1988 30.0714 14.9075 30.1921C14.6161 30.3129 14.3038 30.3751 13.9884 30.3751C13.673 30.3751 13.3607 30.3129 13.0693 30.1921C12.778 30.0714 12.5133 29.8943 12.2904 29.6712L8.8968 26.28C8.45962 25.8274 8.21771 25.2211 8.22318 24.5918C8.22865 23.9626 8.48106 23.3606 8.92604 22.9156C9.37102 22.4707 9.97297 22.2183 10.6022 22.2128C11.2315 22.2073 11.8378 22.4492 12.2904 22.8864L13.9872 24.5832Z" fill="#75817E"/>
</svg>
