<svg width="44" height="44" viewBox="0 0 44 44" fill="none" xmlns="http://www.w3.org/2000/svg">
<circle cx="22" cy="22" r="22" fill="#FEDCC1" fill-opacity="0.5"/>
<path d="M23.25 29.5V23.25C23.25 23.0842 23.3159 22.9253 23.4331 22.8081C23.5503 22.6908 23.7093 22.625 23.875 22.625H26.375C26.5408 22.625 26.6997 22.6908 26.817 22.8081C26.9342 22.9253 27 23.0842 27 23.25V29.5M23.25 29.5H13.9667M23.25 29.5H27M27 29.5H30.0333M28.875 29.5V19.7908C29.2072 19.5991 29.4908 19.3335 29.7038 19.0146C29.9169 18.6957 30.0538 18.332 30.1038 17.9518C30.1538 17.5715 30.1157 17.1849 29.9924 16.8217C29.869 16.4585 29.6638 16.1286 29.3925 15.8575L28.4008 14.8667C28.1667 14.6322 27.8489 14.5003 27.5175 14.5H16.4817C16.1503 14.5003 15.8325 14.6322 15.5983 14.8667L14.6075 15.8567C14.3369 16.1281 14.1322 16.4581 14.0092 16.8211C13.8863 17.1842 13.8483 17.5706 13.8983 17.9507C13.9483 18.3307 14.0849 18.6942 14.2976 19.0131C14.5103 19.332 14.7934 19.5978 15.125 19.79M15.125 29.4992V19.7917C15.625 20.08 16.2094 20.1865 16.779 20.0931C17.3485 19.9996 17.8683 19.7121 18.25 19.2792C18.4844 19.5454 18.7729 19.7585 19.0963 19.9044C19.4196 20.0502 19.7703 20.1254 20.125 20.125C20.8717 20.125 21.5417 19.7975 22 19.2783C22.2344 19.5447 22.5228 19.758 22.8462 19.904C23.1695 20.05 23.5202 20.1253 23.875 20.125C24.6217 20.125 25.2917 19.7975 25.75 19.2783C26.1319 19.7111 26.6516 19.9985 27.2212 20.0918C27.7908 20.185 28.3751 20.0784 28.875 19.79M17.625 26.9992H20.75C20.9158 26.9992 21.0747 26.9333 21.192 26.8161C21.3092 26.6989 21.375 26.5399 21.375 26.3742V23.25C21.375 23.0842 21.3092 22.9253 21.192 22.8081C21.0747 22.6908 20.9158 22.625 20.75 22.625H17.625C17.4593 22.625 17.3003 22.6908 17.1831 22.8081C17.0659 22.9253 17 23.0842 17 23.25V26.375C17 26.7208 17.28 26.9992 17.625 26.9992Z" stroke="#F15640" stroke-width="1.5" stroke-linecap="round" stroke-linejoin="round"/>
</svg>
