<svg width="44" height="44" viewBox="0 0 44 44" fill="none" xmlns="http://www.w3.org/2000/svg">
<circle cx="22" cy="22" r="22" fill="#FEDCC1" fill-opacity="0.5"/>
<path d="M22.8125 25.5C22.8125 25.6921 22.6259 25.8478 22.3958 25.8478C22.1657 25.8478 21.9791 25.6921 21.9791 25.5C21.9791 25.3079 22.1657 25.1522 22.3958 25.1522C22.6259 25.1522 22.8125 25.3079 22.8125 25.5Z" fill="#F15640" stroke="#F15640" stroke-width="0.69565"/>
<path d="M22.5 23.7321L22.5 23.2291C22.5 22.5986 22.9024 22.0383 23.5 21.8369V21.8369C24.0976 21.6356 24.5 21.0754 24.5 20.4448V20.2459C24.5 19.2817 23.7183 18.5 22.7541 18.5H22.5C21.3954 18.5 20.5 19.3954 20.5 20.5V20.5" stroke="#F15640" stroke-width="1.3913" stroke-linecap="round"/>
<path d="M22.5 28.75C26.6417 28.75 30 25.6717 30 21.875C30 18.0783 26.6417 15 22.5 15C18.3583 15 15 18.0783 15 21.875C15 23.6283 15.7158 25.2275 16.8942 26.4417C17.2542 26.8142 17.5108 27.3083 17.3825 27.8092C17.242 28.3568 16.979 28.8654 16.6133 29.2967C16.906 29.3492 17.2027 29.3754 17.5 29.375C18.5683 29.375 19.5583 29.04 20.3708 28.4692C21.0458 28.6525 21.7608 28.75 22.5 28.75Z" stroke="#F15640" stroke-width="1.5" stroke-linecap="round" stroke-linejoin="round"/>
</svg>
