<svg width="44" height="44" viewBox="0 0 44 44" fill="none" xmlns="http://www.w3.org/2000/svg">
<circle cx="22" cy="22" r="22" fill="#FEDCC1" fill-opacity="0.5"/>
<path d="M25.125 20.75V17C25.125 16.1712 24.7957 15.3763 24.2097 14.7903C23.6236 14.2042 22.8288 13.875 22 13.875C21.1712 13.875 20.3763 14.2042 19.7903 14.7903C19.2042 15.3763 18.875 16.1712 18.875 17V20.75M28.3383 19.0892L29.3908 29.0892C29.4492 29.6433 29.0158 30.125 28.4583 30.125H15.5417C15.4102 30.1251 15.2801 30.0976 15.1599 30.0442C15.0398 29.9908 14.9322 29.9127 14.8442 29.8151C14.7562 29.7174 14.6897 29.6023 14.649 29.4772C14.6084 29.3521 14.5945 29.2199 14.6083 29.0892L15.6617 19.0892C15.686 18.8588 15.7947 18.6456 15.9669 18.4906C16.1391 18.3357 16.3625 18.25 16.5942 18.25H27.4058C27.8858 18.25 28.2883 18.6125 28.3383 19.0892ZM19.1875 20.75C19.1875 20.8329 19.1546 20.9124 19.096 20.971C19.0374 21.0296 18.9579 21.0625 18.875 21.0625C18.7921 21.0625 18.7126 21.0296 18.654 20.971C18.5954 20.9124 18.5625 20.8329 18.5625 20.75C18.5625 20.6671 18.5954 20.5876 18.654 20.529C18.7126 20.4704 18.7921 20.4375 18.875 20.4375C18.9579 20.4375 19.0374 20.4704 19.096 20.529C19.1546 20.5876 19.1875 20.6671 19.1875 20.75ZM25.4375 20.75C25.4375 20.8329 25.4046 20.9124 25.346 20.971C25.2874 21.0296 25.2079 21.0625 25.125 21.0625C25.0421 21.0625 24.9626 21.0296 24.904 20.971C24.8454 20.9124 24.8125 20.8329 24.8125 20.75C24.8125 20.6671 24.8454 20.5876 24.904 20.529C24.9626 20.4704 25.0421 20.4375 25.125 20.4375C25.2079 20.4375 25.2874 20.4704 25.346 20.529C25.4046 20.5876 25.4375 20.6671 25.4375 20.75Z" stroke="#F15640" stroke-width="1.5" stroke-linecap="round" stroke-linejoin="round"/>
</svg>
