<svg width="24" height="25" viewBox="0 0 24 25" fill="none" xmlns="http://www.w3.org/2000/svg">
<path d="M8 19.4282C9.21615 20.1303 10.5957 20.5 12 20.5C13.4043 20.5 14.7838 20.1303 16 19.4282C17.2162 18.7261 18.2261 17.7162 18.9282 16.5C19.6303 15.2838 20 13.9043 20 12.5C20 11.0957 19.6303 9.71615 18.9282 8.5C18.2261 7.28385 17.2162 6.27394 16 5.5718C14.7838 4.86965 13.4043 4.5 12 4.5C10.5957 4.5 9.21615 4.86965 8 5.5718" stroke="#4F4F4F" stroke-width="2"/>
<path d="M2 12.5L1.21913 11.8753L0.719375 12.5L1.21913 13.1247L2 12.5ZM11 13.5C11.5523 13.5 12 13.0523 12 12.5C12 11.9477 11.5523 11.5 11 11.5V13.5ZM5.21913 6.8753L1.21913 11.8753L2.78087 13.1247L6.78087 8.1247L5.21913 6.8753ZM1.21913 13.1247L5.21913 18.1247L6.78087 16.8753L2.78087 11.8753L1.21913 13.1247ZM2 13.5H11V11.5H2V13.5Z" fill="#4F4F4F"/>
</svg>
