<svg width="48" height="48" viewBox="0 0 48 48" fill="none" xmlns="http://www.w3.org/2000/svg">
<path d="M21.0169 1.93342C21.2914 1.35305 21.7159 0.864406 22.2425 0.522737C22.7691 0.181069 23.3767 0 23.9967 0C24.6168 0 25.2244 0.181069 25.751 0.522737C26.2776 0.864406 26.7021 1.35305 26.9766 1.93342L32.5929 13.8139L45.1511 15.722C45.7651 15.8144 46.342 16.0844 46.8166 16.5013C47.2911 16.9183 47.6445 17.4656 47.8366 18.0813C48.0287 18.697 48.0519 19.3565 47.9036 19.9853C47.7553 20.614 47.4414 21.1869 46.9974 21.6391L37.9064 30.8867L40.0518 43.9429C40.1569 44.5811 40.0888 45.2372 39.8552 45.8371C39.6216 46.437 39.2319 46.9566 38.7301 47.3373C38.2283 47.7179 37.6345 47.9444 37.0158 47.991C36.3971 48.0376 35.7783 47.9025 35.2294 47.6011L23.9967 41.4334L12.7641 47.6011C12.2152 47.9025 11.5963 48.0376 10.9777 47.991C10.359 47.9444 9.76517 47.7179 9.26337 47.3373C8.76158 46.9566 8.37185 46.437 8.13827 45.8371C7.9047 45.2372 7.83661 44.5811 7.94171 43.9429L10.0834 30.8867L0.999787 21.6352C0.556943 21.1832 0.243934 20.6109 0.0960767 19.983C-0.0517805 19.355 -0.0286013 18.6965 0.162999 18.0816C0.3546 17.4667 0.706996 16.9199 1.18043 16.503C1.65386 16.0861 2.22948 15.8156 2.84235 15.722L15.3969 13.8139L21.0169 1.93342ZM23.9931 4.34266L18.6241 15.7027C18.3858 16.2066 18.0337 16.6424 17.5982 16.9728C17.1628 17.3031 16.657 17.5181 16.1243 17.5993L4.11257 19.4226L12.8047 28.2655C13.1902 28.6586 13.4784 29.1436 13.6444 29.6788C13.8103 30.214 13.8491 30.7834 13.7574 31.3377L11.7081 43.8272L22.4533 37.9294C22.9299 37.6681 23.4602 37.5315 23.9986 37.5315C24.537 37.5315 25.0673 37.6681 25.5439 37.9294L36.2891 43.8272L34.2361 31.3377C34.1444 30.7834 34.1832 30.214 34.3491 29.6788C34.5151 29.1436 34.8032 28.6586 35.1887 28.2655L43.8809 19.4226L31.8692 17.5993C31.3365 17.5181 30.8307 17.3031 30.3953 16.9728C29.9598 16.6424 29.6077 16.2066 29.3694 15.7027L23.9931 4.34266Z" fill="#75817E"/>
</svg>
