<svg width="131" height="48" viewBox="0 0 131 48" fill="none" xmlns="http://www.w3.org/2000/svg">
<path d="M137.143 31.7143L124.286 38.3951V25.0335L137.143 31.7143Z" fill="white"/>
<rect width="128.571" height="48" rx="20.5714" fill="white"/>
<path d="M19.8215 16.9977C17.0443 16.9977 15.0695 19.5691 15.0695 23.6217C15.0695 27.6743 17.0443 30.2663 19.8215 30.2663C22.5986 30.2663 24.5735 27.6743 24.5735 23.6217C24.5735 19.5691 22.5986 16.9977 19.8215 16.9977ZM19.8215 18.952C21.4466 18.952 22.5369 20.7006 22.5369 23.6217C22.5369 26.5634 21.4466 28.3326 19.8215 28.3326C18.2169 28.3326 17.1266 26.5634 17.1266 23.6217C17.1266 20.7006 18.2169 18.952 19.8215 18.952ZM28.2146 15.5988V34.4423H30.354V15.5988H28.2146ZM23.9152 22.6137V24.3417H29.1403V22.6137H23.9152ZM42.6953 21.7703V23.5188H47.797V21.7703H42.6953ZM37.9021 17.1623V20.248C37.9021 23.7657 36.0919 27.3863 33.1296 28.8057L34.4873 30.5337C37.717 28.8674 39.6507 24.6708 39.6507 20.248V17.1623H37.9021ZM38.3341 17.1623V20.248C38.3341 24.6091 40.2061 28.5794 43.4564 30.2046L44.7524 28.4766C41.8519 27.1394 40.0621 23.7246 40.0621 20.248V17.1623H38.3341ZM46.7273 15.5988V34.4423H48.8667V15.5988H46.7273ZM63.4011 26.2137V30.7189H65.5405V26.2137H63.4011ZM64.4708 16.7303C60.5005 16.7303 57.5588 18.7257 57.5588 21.7703C57.5588 24.8354 60.5005 26.8103 64.4708 26.8103C68.4617 26.8103 71.3828 24.8354 71.3828 21.7703C71.3828 18.7257 68.4617 16.7303 64.4708 16.7303ZM64.4708 18.4377C67.2891 18.4377 69.2845 19.7337 69.2845 21.7703C69.2845 23.8274 67.2891 25.1028 64.4708 25.1028C61.6731 25.1028 59.6571 23.8274 59.6571 21.7703C59.6571 19.7337 61.6731 18.4377 64.4708 18.4377ZM55.9954 30.3486V32.1177H73.0285V30.3486H55.9954ZM81.8932 22.1611V23.9303H85.2875V22.1611H81.8932ZM78.1698 17.3268V20.7211C78.1698 23.9303 76.8738 27.2834 74.22 28.888L75.5366 30.5131C78.396 28.7646 79.836 24.7943 79.836 20.7211V17.3268H78.1698ZM78.6223 17.3268V20.6388C78.6223 24.4651 79.8772 28.3531 82.6955 30.1017L83.9092 28.4148C81.3995 26.8308 80.2475 23.6628 80.2475 20.6388V17.3268H78.6223ZM88.4966 15.6194V34.4217H90.5538V15.6194H88.4966ZM84.6703 15.9691V33.5166H86.6863V15.9691H84.6703ZM96.991 25.2468V30.6983H99.1304V25.2468H96.991ZM103.882 25.2468V30.6983H106.042V25.2468H103.882ZM93.0207 30.3486V32.1177H110.054V30.3486H93.0207ZM101.496 16.6891C97.4847 16.6891 94.5842 18.6228 94.5842 21.6263C94.5842 24.6091 97.4847 26.5428 101.496 26.5428C105.508 26.5428 108.408 24.6091 108.408 21.6263C108.408 18.6228 105.508 16.6891 101.496 16.6891ZM101.496 18.376C104.335 18.376 106.31 19.6308 106.31 21.6263C106.31 23.6011 104.335 24.856 101.496 24.856C98.6573 24.856 96.6824 23.6011 96.6824 21.6263C96.6824 19.6308 98.6573 18.376 101.496 18.376ZM113.652 33.0023C114.537 33.0023 115.236 32.3029 115.236 31.336C115.236 30.3486 114.537 29.6697 113.652 29.6697C112.747 29.6697 112.068 30.3486 112.068 31.336C112.068 32.3029 112.747 33.0023 113.652 33.0023Z" fill="#252525"/>
</svg>
