<svg width="138" height="49" viewBox="0 0 138 49" fill="none" xmlns="http://www.w3.org/2000/svg">
<path d="M137.143 32.2143L124.286 38.8951V25.5335L137.143 32.2143Z" fill="white"/>
<rect y="0.5" width="128.571" height="48" rx="20.5714" fill="white"/>
<path d="M27.5533 16.1194V29.8817H29.7133V16.1194H27.5533ZM29.0756 21.6737V23.4634H32.367V21.6737H29.0756ZM17.823 32.8029V34.5514H30.4745V32.8029H17.823ZM17.823 28.4623V33.5434H19.983V28.4623H17.823ZM20.271 17.3949C17.4322 17.3949 15.2928 19.3491 15.2928 22.0851C15.2928 24.8211 17.4322 26.7754 20.271 26.7754C23.1099 26.7754 25.2699 24.8211 25.2699 22.0851C25.2699 19.3491 23.1099 17.3949 20.271 17.3949ZM20.271 19.2669C21.9168 19.2669 23.1716 20.3777 23.1716 22.0851C23.1716 23.7926 21.9168 24.9034 20.271 24.9034C18.6459 24.9034 17.391 23.7926 17.391 22.0851C17.391 20.3777 18.6459 19.2669 20.271 19.2669ZM34.6694 17.1686V25.1914H36.8089V17.1686H34.6694ZM34.6694 24.7183V26.4874H36.13C39.5037 26.4874 41.8489 26.364 44.5026 25.8291L44.2352 24.1011C41.6637 24.6154 39.4009 24.7183 36.13 24.7183H34.6694ZM46.9712 16.1194V27.5366H49.1312V16.1194H46.9712ZM42.0546 18.0943V19.7606H47.5266V18.0943H42.0546ZM42.0546 21.3651V23.0314H47.5266V21.3651H42.0546ZM42.8569 27.7423C38.9277 27.7423 36.5209 29.0589 36.5209 31.3217C36.5209 33.6052 38.9277 34.9217 42.8569 34.9217C46.786 34.9217 49.1929 33.6052 49.1929 31.3217C49.1929 29.0589 46.786 27.7423 42.8569 27.7423ZM42.8569 29.4292C45.5312 29.4292 47.0534 30.108 47.0534 31.3217C47.0534 32.556 45.5312 33.2349 42.8569 33.2349C40.2032 33.2349 38.6603 32.556 38.6603 31.3217C38.6603 30.108 40.2032 29.4292 42.8569 29.4292ZM64.4964 16.1194V34.9217H66.6358V16.1194H64.4964ZM66.1421 23.6691V25.4589H69.557V23.6691H66.1421ZM51.9684 19.02V20.748H62.9947V19.02H51.9684ZM57.5433 22.1057C54.8484 22.1057 52.8735 23.916 52.8735 26.4874C52.8735 29.0794 54.8484 30.8897 57.5433 30.8897C60.2175 30.8897 62.1924 29.0794 62.1924 26.4874C62.1924 23.916 60.2175 22.1057 57.5433 22.1057ZM57.5433 23.8749C59.045 23.8749 60.1353 24.9034 60.1353 26.4874C60.1353 28.0714 59.045 29.1206 57.5433 29.1206C56.021 29.1206 54.9307 28.0714 54.9307 26.4874C54.9307 24.9034 56.021 23.8749 57.5433 23.8749ZM56.4324 16.3869V19.74H58.5924V16.3869H56.4324ZM77.9691 22.6611V24.4303H81.3634V22.6611H77.9691ZM74.2457 17.8269V21.2211C74.2457 24.4303 72.9497 27.7834 70.2959 29.388L71.6125 31.0132C74.4719 29.2646 75.9119 25.2943 75.9119 21.2211V17.8269H74.2457ZM74.6982 17.8269V21.1389C74.6982 24.9651 75.9531 28.8532 78.7714 30.6017L79.9851 28.9149C77.4754 27.3309 76.3234 24.1629 76.3234 21.1389V17.8269H74.6982ZM84.5725 16.1194V34.9217H86.6297V16.1194H84.5725ZM80.7462 16.4691V34.0166H82.7622V16.4691H80.7462ZM93.0669 25.7469V31.1983H95.2063V25.7469H93.0669ZM99.9583 25.7469V31.1983H102.118V25.7469H99.9583ZM89.0966 30.8486V32.6177H106.13V30.8486H89.0966ZM97.5721 17.1891C93.5606 17.1891 90.6601 19.1229 90.6601 22.1263C90.6601 25.1091 93.5606 27.0429 97.5721 27.0429C101.583 27.0429 104.484 25.1091 104.484 22.1263C104.484 19.1229 101.583 17.1891 97.5721 17.1891ZM97.5721 18.876C100.411 18.876 102.386 20.1309 102.386 22.1263C102.386 24.1011 100.411 25.356 97.5721 25.356C94.7332 25.356 92.7583 24.1011 92.7583 22.1263C92.7583 20.1309 94.7332 18.876 97.5721 18.876ZM109.399 28.4006H110.983L111.312 20.172L111.374 17.7034H108.988L109.049 20.172L109.399 28.4006ZM110.181 33.5023C111.086 33.5023 111.765 32.8029 111.765 31.836C111.765 30.8486 111.086 30.1697 110.181 30.1697C109.296 30.1697 108.597 30.8486 108.597 31.836C108.597 32.8029 109.296 33.5023 110.181 33.5023Z" fill="#252525"/>
</svg>
