<svg width="94" height="21" viewBox="0 0 94 21" fill="none" xmlns="http://www.w3.org/2000/svg">
<path d="M2 3.50885L3.36364 5.05471C4.72727 6.60057 7.45455 9.69229 10.1818 12.5164C12.9091 15.3405 15.6364 17.8971 18.3636 18.3883C21.0909 18.8796 23.8182 17.3056 26.5455 15.874C29.2727 14.4424 32 13.1531 34.7273 10.954C37.4545 8.75495 40.1818 5.64601 42.9091 5.39972C45.6364 5.15343 48.3636 7.76978 51.0909 9.41612C53.8182 11.0625 56.5455 11.7388 59.2727 9.53663C62 7.33449 64.7273 2.25389 67.4545 2.00937C70.1818 1.76485 72.9091 6.35641 75.6364 9.98633C78.3636 13.6163 81.0909 16.2845 83.8182 15.9257C86.5455 15.5669 89.2727 12.181 90.6364 10.4881L92 8.79515" stroke="#F7A08C" stroke-width="4"/>
</svg>
