<svg width="93" height="29" viewBox="0 0 93 29" fill="none" xmlns="http://www.w3.org/2000/svg">
<path d="M2 27L3.34848 25.7938C4.69697 24.5877 7.39394 22.1753 10.0909 17.9297C12.7879 13.6841 15.4848 7.60529 18.1818 4.56548C20.8788 1.52566 23.5758 1.52485 26.2727 2.82326C28.9697 4.12166 31.6667 6.71927 34.3636 10.4921C37.0606 14.265 39.7576 19.2132 42.4545 21.5562C45.1515 23.8992 47.8485 23.637 50.5455 20.1953C53.2424 16.7536 55.9394 10.1324 58.6364 10.063C61.3333 9.99361 64.0303 16.4761 66.7273 18.1526C69.4242 19.8292 72.1212 16.6998 74.8182 16.1774C77.5152 15.655 80.2121 17.7395 82.9091 18.5816C85.6061 19.4237 88.303 19.0232 89.6515 18.823L91 18.6228" stroke="#F7A08C" stroke-width="4" stroke-linecap="round"/>
</svg>
