<svg width="48" height="48" viewBox="0 0 48 48" fill="none" xmlns="http://www.w3.org/2000/svg">
<circle cx="24" cy="24" r="24" fill="#F3E58C"/>
<path d="M33.8182 24C33.8182 19.9094 33.8182 17.8641 32.7765 16.4303C32.44 15.9672 32.0328 15.56 31.5697 15.2235C30.1359 14.1818 28.0906 14.1818 24 14.1818C19.9094 14.1818 17.8641 14.1818 16.4303 15.2235C15.9672 15.56 15.56 15.9672 15.2235 16.4303C14.1818 17.8641 14.1818 19.9094 14.1818 24V31.6364C14.1818 32.6649 14.1818 33.1791 14.5013 33.4987C14.8209 33.8182 15.3351 33.8182 16.3636 33.8182H24C28.0906 33.8182 30.1359 33.8182 31.5697 32.7765C32.0328 32.44 32.44 32.0328 32.7765 31.5697C33.8182 30.1359 33.8182 28.0906 33.8182 24Z" fill="#9EA615" fill-opacity="0.4"/>
<path d="M19.7046 22.1591L28.2955 22.1591" stroke="white" stroke-width="1.09091" stroke-linecap="round" stroke-linejoin="round"/>
<path d="M19.7046 25.8409H25.8409" stroke="white" stroke-width="1.09091" stroke-linecap="round" stroke-linejoin="round"/>
</svg>
