<svg width="48" height="48" viewBox="0 0 48 48" fill="none" xmlns="http://www.w3.org/2000/svg">
<path d="M36 27.6C36 26.6452 35.6207 25.7295 34.9456 25.0544C34.2705 24.3793 33.3548 24 32.4 24H15.6C14.6452 24 13.7295 24.3793 13.0544 25.0544C12.3793 25.7295 12 26.6452 12 27.6V28.8C12 33.5304 16.464 38.4 24 38.4C31.536 38.4 36 33.5304 36 28.8V27.6ZM30.6 15C30.6 13.2496 29.9046 11.5708 28.6669 10.3331C27.4292 9.09536 25.7504 8.4 24 8.4C22.2496 8.4 20.5708 9.09536 19.3331 10.3331C18.0954 11.5708 17.4 13.2496 17.4 15C17.4 16.7504 18.0954 18.4292 19.3331 19.6669C20.5708 20.9046 22.2496 21.6 24 21.6C25.7504 21.6 27.4292 20.9046 28.6669 19.6669C29.9046 18.4292 30.6 16.7504 30.6 15ZM48 24C48 37.2552 37.2552 48 24 48C10.7448 48 0 37.2552 0 24C0 10.7448 10.7448 0 24 0C37.2552 0 48 10.7448 48 24ZM44.4 24C44.4 18.5896 42.2507 13.4008 38.425 9.57502C34.5992 5.74928 29.4104 3.6 24 3.6C18.5896 3.6 13.4008 5.74928 9.57502 9.57502C5.74928 13.4008 3.6 18.5896 3.6 24C3.6 29.4104 5.74928 34.5992 9.57502 38.425C13.4008 42.2507 18.5896 44.4 24 44.4C29.4104 44.4 34.5992 42.2507 38.425 38.425C42.2507 34.5992 44.4 29.4104 44.4 24Z" fill="#75817E"/>
</svg>
