<svg width="126" height="48" viewBox="0 0 126 48" fill="none" xmlns="http://www.w3.org/2000/svg">
<path d="M132.357 31.7143L119.5 38.395V25.0335L132.357 31.7143Z" fill="white"/>
<rect width="123.286" height="48" rx="20.5714" fill="white"/>
<path d="M30.5965 15.4051V25.3617H32.7565V15.4051H30.5965ZM32.16 19.54V21.3091H35.4103V19.54H32.16ZM25.3303 16.7011V17.956C25.3303 20.692 23.0263 23.0166 18.0891 23.9834L18.9531 25.7114C24.5485 24.5389 27.7165 21.5354 27.7165 16.7011H25.3303ZM18.912 16.7011V18.4291H26.6468V16.7011H18.912ZM20.7223 26.164V33.1789H22.8617V27.7686H32.8388V26.164H20.7223ZM20.7223 32.3766V33.9811H33.2503V32.3766H20.7223ZM22.1623 29.2497V30.8131H32.6331V29.2497H22.1623ZM49.9115 15.3846V34.228H52.0715V15.3846H49.9115ZM42.0532 16.7834C39.2555 16.7834 37.2189 19.3549 37.2189 23.4074C37.2189 27.46 39.2555 30.052 42.0532 30.052C44.8715 30.052 46.9081 27.46 46.9081 23.4074C46.9081 19.3549 44.8715 16.7834 42.0532 16.7834ZM42.0532 18.7377C43.6989 18.7377 44.8304 20.4863 44.8304 23.4074C44.8304 26.3491 43.6989 28.1183 42.0532 28.1183C40.4075 28.1183 39.2761 26.3491 39.2761 23.4074C39.2761 20.4863 40.4075 18.7377 42.0532 18.7377Z" fill="#252525"/>
<path d="M56.287 36.0177H60.6482V34.7217H58.0768V17.4417H60.6482V16.1251H56.287V36.0177ZM74.4402 15.3846V34.1869H76.6002V15.3846H74.4402ZM76.0242 22.8314V24.6006H79.4185V22.8314H76.0242ZM69.5648 17.38V17.7503C69.5648 22.7697 67.0756 26.5343 61.9945 29.1263L63.2082 30.772C69.3591 27.6863 71.6836 22.852 71.6836 17.38H69.5648ZM62.9408 17.38V19.1286H70.6756V17.38H62.9408ZM93.858 15.4051V34.2074H96.0386V15.4051H93.858ZM85.4854 20.0543V21.3914C85.4854 24.4771 83.6752 27.6657 80.7746 28.9823L81.9472 30.6486C85.1563 29.1674 87.2134 25.3823 87.2134 21.3914V20.0543H85.4854ZM85.938 20.0543V21.3914C85.938 25.2589 88.0157 28.9206 91.2454 30.3194L92.418 28.6737C89.4763 27.3983 87.6249 24.3331 87.6249 21.3914V20.0543H85.938ZM81.33 18.5731V20.3011H91.7186V18.5731H81.33ZM85.4854 15.796V19.4989H87.6454V15.796H85.4854ZM98.9375 36.0177H103.278V16.1251H98.9375V17.4417H101.509V34.7217H98.9375V36.0177Z" fill="#9EA615"/>
</svg>
