<svg width="133" height="48" viewBox="0 0 133 48" fill="none" xmlns="http://www.w3.org/2000/svg">
<path d="M132.571 31.2249L119.584 37.9057V24.5442L132.571 31.2249Z" fill="white"/>
<rect width="123.286" height="48" rx="20.5714" fill="white"/>
<path d="M26.5235 18.2731V20.0217H32.1807V18.2731H26.5235ZM26.5235 22.4286V24.1771H32.1807V22.4286H26.5235ZM20.9898 27.6743V29.4023H31.5018V34.4217H33.6618V27.6743H20.9898ZM31.5018 15.6194V26.728H33.6618V15.6194H31.5018ZM23.2321 16.6274C20.4344 16.6274 18.3361 18.5406 18.3361 21.2149C18.3361 23.9097 20.4344 25.8023 23.2321 25.8023C26.0092 25.8023 28.1281 23.9097 28.1281 21.2149C28.1281 18.5406 26.0092 16.6274 23.2321 16.6274ZM23.2321 18.4789C24.8572 18.4789 26.0709 19.5691 26.0709 21.2149C26.0709 22.8811 24.8572 23.9714 23.2321 23.9714C21.6069 23.9714 20.3932 22.8811 20.3932 21.2149C20.3932 19.5691 21.6069 18.4789 23.2321 18.4789ZM41.0248 17.1623V20.248C41.0248 23.7246 39.1939 27.3246 36.2728 28.744L37.5893 30.472C40.8191 28.8263 42.7733 24.6297 42.7733 20.248V17.1623H41.0248ZM41.4362 17.1623V20.248C41.4362 24.4857 43.3082 28.4971 46.4351 30.1223L47.7516 28.4149C44.9333 27.016 43.1642 23.6011 43.1642 20.248V17.1623H41.4362ZM49.0065 15.6194V34.4217H51.1665V15.6194H49.0065ZM50.6728 23.0663V24.856H54.0876V23.0663H50.6728Z" fill="#252525"/>
<path d="M56.2872 36.232H60.6483V34.936H58.0769V17.656H60.6483V16.3394H56.2872V36.232ZM70.47 18.2731V20.0217H76.1272V18.2731H70.47ZM70.47 22.4286V24.1771H76.1272V22.4286H70.47ZM64.9363 27.6743V29.4023H75.4483V34.4217H77.6083V27.6743H64.9363ZM75.4483 15.6194V26.728H77.6083V15.6194H75.4483ZM67.1786 16.6274C64.3809 16.6274 62.2826 18.5406 62.2826 21.2149C62.2826 23.9097 64.3809 25.8023 67.1786 25.8023C69.9557 25.8023 72.0746 23.9097 72.0746 21.2149C72.0746 18.5406 69.9557 16.6274 67.1786 16.6274ZM67.1786 18.4789C68.8037 18.4789 70.0175 19.5691 70.0175 21.2149C70.0175 22.8811 68.8037 23.9714 67.1786 23.9714C65.5535 23.9714 64.3397 22.8811 64.3397 21.2149C64.3397 19.5691 65.5535 18.4789 67.1786 18.4789ZM93.3644 15.6194V34.4217H95.5244V15.6194H93.3644ZM94.537 22.84V24.6297H97.9313V22.84H94.537ZM82.9964 17.2034V20.968C82.9964 23.6217 82.5233 26.8926 80.1781 28.6617L81.5976 30.184C84.0044 28.2709 84.5804 24.3623 84.5804 20.968V17.2034H82.9964ZM83.4901 17.2034V20.968C83.4901 24.1771 83.9633 28.4354 86.5964 30.4103L87.769 28.8057C85.4239 26.9131 85.0124 23.4777 85.0124 20.968V17.2034H83.4901ZM88.1599 17.2034V20.968C88.1599 23.5806 87.769 26.9543 85.4239 28.8057L86.5964 30.4103C89.2296 28.456 89.7233 24.2594 89.7233 20.968V17.2034H88.1599ZM88.6536 17.2034V20.968C88.6536 24.4034 89.209 28.3326 91.7187 30.2457L93.0353 28.6617C90.6901 26.9131 90.217 23.6834 90.217 20.968V17.2034H88.6536ZM98.9377 36.232H103.278V16.3394H98.9377V17.656H101.509V34.936H98.9377V36.232Z" fill="#9EA615"/>
</svg>
