<svg width="232" height="87" viewBox="0 0 232 87" fill="none" xmlns="http://www.w3.org/2000/svg">
<path d="M6.65728 76.7955C7.47226 77.0821 8.34729 77.1539 9.19806 77.004C10.0488 76.8541 10.8467 76.4875 11.5147 75.9396C13.216 74.5109 13.7496 72.158 14.1835 69.9788L15.4672 63.5329L12.7796 65.3843C10.8467 66.7157 8.87033 68.0898 7.53212 70.0182C6.19392 71.9467 5.61009 74.5793 6.68499 76.6661" fill="#E6E6E6"/>
<path d="M7.07228 85.0483C6.734 82.5827 6.38596 80.0853 6.62381 77.5933C6.83459 75.3802 7.50954 73.2189 8.88363 71.4461C9.613 70.507 10.5005 69.7025 11.5062 69.0685C11.7684 68.903 12.0098 69.3186 11.7487 69.4835C10.0085 70.5837 8.66245 72.2084 7.90468 74.1233C7.0678 76.2527 6.93342 78.574 7.07757 80.836C7.1647 82.2039 7.34986 83.5629 7.53581 84.9203C7.55049 84.9816 7.54133 85.0463 7.51017 85.1012C7.47901 85.1561 7.42817 85.1971 7.36795 85.2159C7.30652 85.2324 7.24104 85.2241 7.18571 85.1926C7.13039 85.1612 7.0897 85.1092 7.07245 85.048L7.07228 85.0483Z" fill="#F2F2F2"/>
<path d="M9.50716 81.0921C9.85663 81.6237 10.3371 82.0562 10.9022 82.3481C11.4673 82.64 12.098 82.7813 12.7336 82.7585C14.3673 82.681 15.7288 81.5408 16.9542 80.4579L20.5797 77.2556L18.1803 77.1407C16.4548 77.058 14.6848 76.9805 13.0413 77.5134C11.3978 78.0464 9.88213 79.327 9.58165 81.0288" fill="#E6E6E6"/>
<path d="M6.11606 86.4656C7.74466 83.5828 9.63353 80.3789 13.0089 79.3548C13.9474 79.0711 14.9314 78.9694 15.908 79.0553C16.2158 79.082 16.139 79.5566 15.8318 79.5301C14.1947 79.3941 12.5608 79.8266 11.2051 80.7546C9.93068 81.6797 8.85023 82.8461 8.02511 84.1877C7.49846 84.99 7.02678 85.8262 6.55508 86.6614C6.40436 86.9283 5.96358 86.7356 6.11606 86.4656Z" fill="#F2F2F2"/>
<path d="M155.628 73.0273C156.75 73.422 157.955 73.5208 159.127 73.3144C160.298 73.1079 161.397 72.6031 162.317 71.8486C164.66 69.8812 165.394 66.6412 165.992 63.6403L167.76 54.7638L164.059 57.3132C161.397 59.1467 158.675 61.039 156.833 63.6945C154.99 66.3501 154.186 69.9754 155.666 72.849" fill="#E6E6E6"/>
<path d="M156.199 84.3918C155.734 80.9966 155.254 77.5575 155.582 74.1259C155.872 71.0782 156.801 68.1021 158.694 65.6608C159.698 64.3676 160.92 63.2597 162.305 62.3867C162.666 62.1588 162.999 62.7311 162.639 62.9582C160.243 64.4733 158.389 66.7105 157.346 69.3475C156.193 72.2797 156.008 75.4763 156.207 78.5913C156.327 80.475 156.582 82.3464 156.838 84.2155C156.858 84.3001 156.845 84.3891 156.802 84.4647C156.759 84.5403 156.689 84.5967 156.607 84.6226C156.522 84.6454 156.432 84.6339 156.356 84.5906C156.279 84.5474 156.223 84.4758 156.2 84.3914L156.199 84.3918Z" fill="#F2F2F2"/>
<path d="M159.552 78.9439C160.034 79.6759 160.695 80.2716 161.473 80.6735C162.252 81.0754 163.12 81.2701 163.995 81.2387C166.245 81.1319 168.12 79.5617 169.807 78.0705L174.8 73.6608L171.496 73.5026C169.12 73.3887 166.682 73.2819 164.419 74.0158C162.156 74.7497 160.069 76.5132 159.655 78.8568" fill="#E6E6E6"/>
<path d="M154.883 86.3435C157.125 82.3737 159.726 77.9618 164.375 76.5516C165.667 76.1608 167.022 76.0208 168.367 76.1392C168.791 76.1758 168.685 76.8294 168.262 76.793C166.007 76.6057 163.757 77.2012 161.891 78.4792C160.094 79.7025 158.695 81.4033 157.512 83.2067C156.786 84.3115 156.137 85.4631 155.487 86.6131C155.28 86.9807 154.673 86.7153 154.883 86.3435Z" fill="#F2F2F2"/>
<path d="M134.608 13.295C134.372 13.192 134.182 13.0056 134.074 12.7712C133.966 12.5368 133.947 12.2709 134.023 12.0241C134.035 11.9863 134.043 11.9471 134.046 11.9075C134.052 11.7944 134.023 11.6821 133.961 11.5872C133.899 11.4923 133.808 11.4199 133.702 11.3807C133.596 11.3415 133.48 11.3376 133.371 11.3695C133.262 11.4014 133.167 11.4675 133.099 11.558C133.075 11.5901 133.055 11.6248 133.04 11.6615C132.937 11.8981 132.751 12.0886 132.517 12.1966C132.282 12.3047 132.016 12.3228 131.77 12.2475C131.732 12.2353 131.693 12.2276 131.653 12.2246C131.54 12.2177 131.428 12.2475 131.333 12.3094C131.238 12.3713 131.166 12.4622 131.127 12.5685C131.087 12.6748 131.084 12.7909 131.115 12.8996C131.147 13.0083 131.213 13.1038 131.304 13.172C131.336 13.1955 131.371 13.2151 131.407 13.2304C131.644 13.3334 131.834 13.5199 131.942 13.7542C132.05 13.9886 132.068 14.2545 131.993 14.5013C131.981 14.5392 131.973 14.5783 131.97 14.6179C131.963 14.731 131.993 14.8433 132.055 14.9382C132.117 15.0331 132.208 15.1055 132.314 15.1447C132.42 15.1839 132.536 15.1879 132.645 15.1559C132.754 15.124 132.849 15.0579 132.917 14.9674C132.941 14.9353 132.96 14.9006 132.976 14.8639C133.079 14.6273 133.265 14.4368 133.499 14.3288C133.733 14.2207 133.999 14.2026 134.246 14.2779C134.284 14.2901 134.323 14.2978 134.363 14.3008C134.476 14.3077 134.588 14.278 134.683 14.216C134.778 14.1541 134.85 14.0633 134.889 13.957C134.928 13.8507 134.932 13.7346 134.9 13.6258C134.868 13.5171 134.802 13.4216 134.712 13.3534C134.68 13.3299 134.645 13.3104 134.608 13.295Z" fill="#CBCBCB"/>
<path d="M154.633 59.9431C154.397 59.84 154.206 59.6536 154.098 59.4192C153.99 59.1849 153.972 58.919 154.047 58.6721C154.059 58.6343 154.067 58.5952 154.07 58.5555C154.077 58.4424 154.047 58.3301 153.985 58.2352C153.924 58.1404 153.833 58.068 153.726 58.0287C153.62 57.9895 153.504 57.9856 153.395 58.0175C153.287 58.0495 153.191 58.1156 153.123 58.206C153.1 58.2381 153.08 58.2729 153.065 58.3096C152.962 58.5462 152.775 58.7366 152.541 58.8447C152.307 58.9527 152.041 58.9708 151.794 58.8955C151.757 58.8833 151.717 58.8757 151.678 58.8727C151.565 58.8658 151.453 58.8955 151.358 58.9574C151.263 59.0194 151.19 59.1102 151.151 59.2165C151.112 59.3228 151.108 59.4389 151.14 59.5476C151.172 59.6563 151.238 59.7518 151.328 59.8201C151.361 59.8435 151.395 59.8631 151.432 59.8784C151.668 59.9815 151.859 60.1679 151.967 60.4023C152.075 60.6366 152.093 60.9025 152.018 61.1494C152.006 61.1872 151.998 61.2264 151.995 61.266C151.988 61.3791 152.018 61.4914 152.08 61.5863C152.141 61.6811 152.232 61.7535 152.339 61.7928C152.445 61.832 152.561 61.8359 152.67 61.804C152.778 61.772 152.874 61.7059 152.942 61.6155C152.965 61.5834 152.985 61.5486 153 61.5119C153.103 61.2753 153.29 61.0849 153.524 60.9768C153.758 60.8688 154.024 60.8507 154.271 60.926C154.308 60.9381 154.348 60.9458 154.387 60.9488C154.5 60.9557 154.612 60.926 154.707 60.8641C154.802 60.8021 154.875 60.7113 154.914 60.605C154.953 60.4987 154.957 60.3826 154.925 60.2739C154.893 60.1652 154.827 60.0696 154.737 60.0014C154.704 59.978 154.67 59.9584 154.633 59.9431Z" fill="#F1F1F1"/>
<path d="M49.6466 32.7556C49.4101 32.6525 49.2197 32.4661 49.1117 32.2317C49.0037 31.9974 48.9856 31.7315 49.0609 31.4846C49.0731 31.4468 49.0807 31.4077 49.0837 31.368C49.0906 31.2549 49.0609 31.1426 48.999 31.0477C48.9371 30.9529 48.8463 30.8805 48.74 30.8412C48.6338 30.802 48.5177 30.7981 48.4091 30.83C48.3004 30.862 48.2049 30.9281 48.1367 31.0185C48.1133 31.0506 48.0937 31.0854 48.0784 31.1221C47.9754 31.3587 47.789 31.5491 47.5548 31.6572C47.3205 31.7652 47.0547 31.7833 46.808 31.708C46.7702 31.6958 46.731 31.6882 46.6914 31.6852C46.5784 31.6783 46.4661 31.708 46.3713 31.7699C46.2764 31.8319 46.204 31.9227 46.1649 32.029C46.1257 32.1353 46.1217 32.2514 46.1536 32.3601C46.1856 32.4688 46.2516 32.5643 46.3421 32.6326C46.3741 32.656 46.4089 32.6756 46.4456 32.6909C46.6821 32.794 46.8724 32.9804 46.9804 33.2148C47.0884 33.4491 47.1065 33.715 47.0313 33.9619C47.0191 33.9997 47.0114 34.0388 47.0084 34.0785C47.0015 34.1916 47.0312 34.3039 47.0931 34.3988C47.1551 34.4936 47.2459 34.566 47.3521 34.6053C47.4584 34.6445 47.5744 34.6484 47.6831 34.6165C47.7918 34.5845 47.8872 34.5184 47.9554 34.428C47.9789 34.3959 47.9985 34.3611 48.0138 34.3244C48.1168 34.0878 48.3031 33.8974 48.5374 33.7893C48.7716 33.6813 49.0374 33.6632 49.2842 33.7385C49.322 33.7506 49.3611 33.7583 49.4008 33.7613C49.5138 33.7682 49.6261 33.7385 49.7209 33.6766C49.8157 33.6146 49.8881 33.5238 49.9273 33.4175C49.9665 33.3112 49.9704 33.1951 49.9385 33.0864C49.9066 32.9777 49.8405 32.8821 49.7501 32.8139C49.718 32.7905 49.6833 32.7709 49.6466 32.7556Z" fill="#F1F1F1"/>
<path d="M93.4447 16.0263C94.3927 16.0263 95.1611 15.2575 95.1611 14.3092C95.1611 13.3609 94.3927 12.5921 93.4447 12.5921C92.4968 12.5921 91.7283 13.3609 91.7283 14.3092C91.7283 15.2575 92.4968 16.0263 93.4447 16.0263Z" fill="#F1F1F1"/>
<path d="M184.986 11.4474C185.934 11.4474 186.702 10.6786 186.702 9.73026C186.702 8.78193 185.934 8.01315 184.986 8.01315C184.038 8.01315 183.27 8.78193 183.27 9.73026C183.27 10.6786 184.038 11.4474 184.986 11.4474Z" fill="#F7A08C"/>
<path d="M51.679 3.43421C52.6269 3.43421 53.3954 2.66544 53.3954 1.71711C53.3954 0.768774 52.6269 0 51.679 0C50.7311 0 49.9626 0.768774 49.9626 1.71711C49.9626 2.66544 50.7311 3.43421 51.679 3.43421Z" fill="#CBCBCB"/>
<path d="M45.0784 81.474C51.8826 81.474 57.3985 75.9558 57.3985 69.1488C57.3985 62.3418 51.8826 56.8236 45.0784 56.8236C38.2741 56.8236 32.7582 62.3418 32.7582 69.1488C32.7582 75.9558 38.2741 81.474 45.0784 81.474Z" fill="#2F2E41"/>
<path d="M43.2069 78.8217H39.4641V85.5304H43.2069V78.8217Z" fill="#2F2E41"/>
<path d="M50.6926 78.8217H46.9498V85.5304H50.6926V78.8217Z" fill="#2F2E41"/>
<path d="M42.5831 86.7785C44.3057 86.7785 45.7022 86.2546 45.7022 85.6084C45.7022 84.9622 44.3057 84.4383 42.5831 84.4383C40.8605 84.4383 39.4641 84.9622 39.4641 85.6084C39.4641 86.2546 40.8605 86.7785 42.5831 86.7785Z" fill="#2F2E41"/>
<path d="M50.0688 86.6225C51.7914 86.6225 53.1878 86.0986 53.1878 85.4524C53.1878 84.8061 51.7914 84.2823 50.0688 84.2823C48.3462 84.2823 46.9498 84.8061 46.9498 85.4524C46.9498 86.0986 48.3462 86.6225 50.0688 86.6225Z" fill="#2F2E41"/>
<path d="M58.3545 63.7629C61.0227 61.0917 62.5061 58.2468 61.6678 57.4089C60.8296 56.5709 57.9871 58.0572 55.319 60.7285C52.6508 63.3997 51.1674 66.2446 52.0057 67.0825C52.8439 67.9205 55.6864 66.4342 58.3545 63.7629Z" fill="#2F2E41"/>
<path d="M35.1479 67.9411C35.9862 67.1031 34.5028 64.2583 31.8346 61.587C29.1665 58.9157 26.324 57.4295 25.4857 58.2675C24.6475 59.1054 26.1309 61.9502 28.799 64.6215C31.4672 67.2928 34.3097 68.779 35.1479 67.9411Z" fill="#2F2E41"/>
<path d="M44.56 71.6146C46.8855 71.6146 48.7707 69.7286 48.7707 67.4022C48.7707 65.0757 46.8855 63.1898 44.56 63.1898C42.2345 63.1898 40.3493 65.0757 40.3493 67.4022C40.3493 69.7286 42.2345 71.6146 44.56 71.6146Z" fill="white"/>
<path d="M44.56 68.8063C45.3352 68.8063 45.9636 68.1776 45.9636 67.4022C45.9636 66.6267 45.3352 65.998 44.56 65.998C43.7848 65.998 43.1564 66.6267 43.1564 67.4022C43.1564 68.1776 43.7848 68.8063 44.56 68.8063Z" fill="#3F3D56"/>
<path d="M47.9026 75.1928C48.0326 75.9076 47.8735 76.6448 47.4603 77.2423C47.047 77.8398 46.4134 78.2485 45.6989 78.3786C44.9844 78.5088 44.2475 78.3496 43.6503 77.9362C43.0531 77.5227 42.6445 76.8889 42.5144 76.1741L42.5134 76.1688C42.244 74.68 43.3946 74.1532 44.8828 73.8837C46.371 73.6142 47.6332 73.7041 47.9026 75.1928Z" fill="white"/>
<path d="M57.159 82.0844C56.8817 82.0847 56.6158 82.195 56.4197 82.3912C56.2236 82.5873 56.1134 82.8533 56.113 83.1307V85.3164C56.1134 85.5938 56.2236 85.8598 56.4197 86.056C56.6158 86.2521 56.8817 86.3625 57.159 86.3628H73.9882C74.2655 86.3625 74.5314 86.2521 74.7275 86.056C74.9236 85.8598 75.0339 85.5938 75.0342 85.3164V83.1307C75.0339 82.8533 74.9236 82.5873 74.7275 82.3912C74.5314 82.195 74.2655 82.0847 73.9882 82.0844H57.159Z" fill="#E5E5E5"/>
<path d="M66.8372 80.6287C66.733 80.5686 66.6092 80.5523 66.493 80.5834C66.3768 80.6146 66.2777 80.6906 66.2176 80.7948L65.5921 81.8785L64.9793 80.6668C64.925 80.5594 64.8303 80.478 64.716 80.4405C64.6017 80.403 64.4771 80.4124 64.3698 80.4668C64.2625 80.5211 64.1811 80.6158 64.1436 80.7302C64.1061 80.8445 64.1156 80.9691 64.1699 81.0765L64.6468 82.0195H64.472V86.4276H66.8048V82.0195H66.5583L67.0032 81.2486C67.0634 81.1444 67.0796 81.0205 67.0485 80.9043C67.0174 80.788 66.9413 80.6889 66.8372 80.6287Z" fill="#F7A08C"/>
<path d="M44.7611 61.0646C42.5721 61.0623 40.3959 60.7297 38.306 60.078C38.1608 60.0311 38.0342 59.9395 37.9441 59.8163C37.8541 59.6931 37.8053 59.5445 37.8048 59.3919V54.375C37.805 54.1853 37.8804 54.0035 38.0145 53.8693C38.1486 53.7352 38.3303 53.6598 38.5199 53.6595H51.1069C51.2965 53.6598 51.4783 53.7352 51.6123 53.8693C51.7464 54.0035 51.8218 54.1853 51.822 54.375V59.389C51.8221 59.5429 51.7727 59.6928 51.681 59.8164C51.5894 59.9401 51.4604 60.031 51.3132 60.0756C49.1894 60.7248 46.9818 61.058 44.7611 61.0646Z" fill="#F7A08C"/>
<path opacity="0.2" d="M51.679 54.375V55.2135L44.8677 57.6032C44.7404 57.6471 44.6018 57.6451 44.4758 57.5974L37.9478 55.1448V54.375C37.9483 54.2233 38.0087 54.078 38.1159 53.9708C38.2231 53.8635 38.3683 53.8031 38.5199 53.8026H51.1069C51.2585 53.8031 51.4037 53.8635 51.5109 53.9708C51.6181 54.078 51.6786 54.2233 51.679 54.375Z" fill="black"/>
<path d="M44.6772 56.6334C44.5913 56.6335 44.5062 56.6181 44.4258 56.588L34.6706 52.9235C34.5327 52.8717 34.4141 52.7785 34.3311 52.6567C34.2481 52.535 34.2048 52.3905 34.207 52.2431C34.2091 52.0957 34.2568 51.9526 34.3433 51.8334C34.4299 51.7141 34.5511 51.6244 34.6905 51.5767L43.8691 48.4354C44.0174 48.3852 44.178 48.3845 44.3267 48.4335L54.5708 51.8496C54.7123 51.8968 54.8355 51.9871 54.9232 52.1078C55.0109 52.2285 55.0586 52.3737 55.0598 52.5229C55.0609 52.6721 55.0154 52.8179 54.9296 52.94C54.8438 53.0621 54.7219 53.1542 54.5812 53.2036L44.9136 56.5933C44.8376 56.6199 44.7577 56.6335 44.6772 56.6334Z" fill="#F7A08C"/>
<path d="M35.8024 56.3783H35.5163V52.2286H44.2413V52.5148H35.8024V56.3783Z" fill="#3F3D56"/>
<path d="M35.6593 57.2368C35.9753 57.2368 36.2314 56.9806 36.2314 56.6645C36.2314 56.3484 35.9753 56.0921 35.6593 56.0921C35.3433 56.0921 35.0871 56.3484 35.0871 56.6645C35.0871 56.9806 35.3433 57.2368 35.6593 57.2368Z" fill="#3F3D56"/>
<path d="M116.309 81.474C123.113 81.474 128.629 75.9558 128.629 69.1488C128.629 62.3418 123.113 56.8236 116.309 56.8236C109.505 56.8236 103.989 62.3418 103.989 69.1488C103.989 75.9558 109.505 81.474 116.309 81.474Z" fill="#2F2E41"/>
<path d="M114.438 78.8217H110.695V85.5304H114.438V78.8217Z" fill="#2F2E41"/>
<path d="M121.923 78.8217H118.18V85.5304H121.923V78.8217Z" fill="#2F2E41"/>
<path d="M113.814 86.7785C115.536 86.7785 116.933 86.2546 116.933 85.6084C116.933 84.9622 115.536 84.4383 113.814 84.4383C112.091 84.4383 110.695 84.9622 110.695 85.6084C110.695 86.2546 112.091 86.7785 113.814 86.7785Z" fill="#2F2E41"/>
<path d="M121.299 86.6225C123.022 86.6225 124.418 86.0986 124.418 85.4524C124.418 84.8061 123.022 84.2823 121.299 84.2823C119.577 84.2823 118.18 84.8061 118.18 85.4524C118.18 86.0986 119.577 86.6225 121.299 86.6225Z" fill="#2F2E41"/>
<path d="M129.585 63.7629C132.253 61.0916 133.737 58.2468 132.898 57.4089C132.06 56.5709 129.218 58.0572 126.55 60.7285C123.881 63.3997 122.398 66.2445 123.236 67.0825C124.074 67.9204 126.917 66.4342 129.585 63.7629Z" fill="#2F2E41"/>
<path d="M105.312 75.2036C107.465 72.1017 108.422 69.039 107.448 68.3628C106.475 67.6867 103.94 69.6531 101.787 72.755C99.6345 75.8569 98.6783 78.9196 99.6516 79.5957C100.625 80.2719 103.159 78.3054 105.312 75.2036Z" fill="#2F2E41"/>
<path d="M115.791 71.6146C118.116 71.6146 120.001 69.7286 120.001 67.4022C120.001 65.0757 118.116 63.1898 115.791 63.1898C113.465 63.1898 111.58 65.0757 111.58 67.4022C111.58 69.7286 113.465 71.6146 115.791 71.6146Z" fill="white"/>
<path d="M117.221 67.3754C117.996 67.3754 118.624 66.7467 118.624 65.9713C118.624 65.1958 117.996 64.5671 117.221 64.5671C116.446 64.5671 115.817 65.1958 115.817 65.9713C115.817 66.7467 116.446 67.3754 117.221 67.3754Z" fill="#3F3D56"/>
<path d="M120.839 75.1928C121.252 76.6813 119.747 78.1077 117.478 78.3786C115.209 78.6496 113.035 77.6626 112.622 76.1741L112.62 76.1688C112.21 74.68 113.964 74.1532 116.234 73.8837C118.503 73.6142 120.428 73.7041 120.839 75.1928Z" fill="white"/>
<path d="M111.998 61.8949C109.966 62.7098 107.823 63.2134 105.641 63.3887C105.489 63.3994 105.337 63.3617 105.208 63.281C105.078 63.2003 104.978 63.0806 104.92 62.9392L103.049 58.2845C102.979 58.1085 102.981 57.9116 103.055 57.7371C103.13 57.5626 103.27 57.4248 103.446 57.3538L115.124 52.6561C115.3 52.5856 115.497 52.5877 115.672 52.6621C115.846 52.7366 115.984 52.8771 116.055 53.053L117.925 57.705C117.982 57.8478 117.992 58.0053 117.953 58.1542C117.914 58.3032 117.828 58.4356 117.708 58.532C115.98 59.9269 114.056 61.06 111.998 61.8949Z" fill="#F7A08C"/>
<path opacity="0.2" d="M115.922 53.1064L116.235 53.8844L110.806 58.6436C110.705 58.7319 110.575 58.7818 110.441 58.7846L103.469 58.9454L103.182 58.2312C103.126 58.0903 103.128 57.9329 103.187 57.7934C103.247 57.6539 103.359 57.5436 103.5 57.4866L115.178 52.7889C115.319 52.7327 115.476 52.7346 115.615 52.7941C115.755 52.8536 115.865 52.9659 115.922 53.1064Z" fill="black"/>
<path d="M110.268 57.8151C110.188 57.8471 110.104 57.8647 110.018 57.8667L99.6003 58.1076C99.453 58.111 99.3083 58.0688 99.1858 57.9868C99.0634 57.9048 98.9693 57.7869 98.9164 57.6494C98.8634 57.5118 98.8542 57.3613 98.8901 57.2183C98.9259 57.0753 99.005 56.9469 99.1165 56.8506L106.461 50.5105C106.58 50.4085 106.729 50.3479 106.885 50.3379L117.663 49.6841C117.812 49.6751 117.96 49.7129 118.087 49.7922C118.213 49.8714 118.311 49.9883 118.368 50.1263C118.425 50.2643 118.437 50.4166 118.403 50.5619C118.369 50.7071 118.29 50.8381 118.178 50.9364L110.472 57.6896C110.412 57.7426 110.343 57.7851 110.268 57.8151Z" fill="#F7A08C"/>
<path d="M101.939 60.8906L101.673 60.9973L100.126 57.1473L108.221 53.8908L108.328 54.1564L100.498 57.3061L101.939 60.8906Z" fill="#3F3D56"/>
<path d="M101.913 61.7818C102.229 61.7818 102.485 61.5256 102.485 61.2095C102.485 60.8934 102.229 60.6371 101.913 60.6371C101.597 60.6371 101.34 60.8934 101.34 61.2095C101.34 61.5256 101.597 61.7818 101.913 61.7818Z" fill="#3F3D56"/>
<path d="M163.212 40.0283C161.355 38.8689 159.683 37.4359 158.253 35.7776C158.155 35.661 158.096 35.5163 158.084 35.3641C158.073 35.2119 158.11 35.06 158.19 34.9301L160.841 30.6713C160.941 30.5103 161.101 30.3959 161.286 30.3529C161.471 30.3099 161.665 30.342 161.826 30.442L172.511 37.0975C172.672 37.198 172.786 37.3581 172.829 37.5429C172.872 37.7276 172.84 37.9219 172.74 38.083L170.091 42.3394C170.01 42.4701 169.889 42.5712 169.746 42.6277C169.602 42.6842 169.445 42.6932 169.296 42.6533C167.15 42.0814 165.1 41.1969 163.212 40.0283Z" fill="#F7A08C"/>
<path opacity="0.2" d="M172.619 38.0074L172.176 38.7192L165.131 37.1463C165 37.1163 164.883 37.0412 164.801 36.9342L160.555 31.4004L160.962 30.7469C161.043 30.6184 161.171 30.5269 161.318 30.4926C161.466 30.4582 161.621 30.4837 161.75 30.5635L172.435 37.219C172.564 37.2995 172.655 37.4277 172.69 37.5754C172.724 37.7231 172.698 37.8784 172.619 38.0074Z" fill="black"/>
<path d="M165.482 36.2223C165.409 36.177 165.344 36.1189 165.292 36.0508L158.947 27.7819C158.857 27.6649 158.806 27.5232 158.8 27.3759C158.794 27.2286 158.833 27.0831 158.913 26.9591C158.993 26.8351 159.109 26.7388 159.245 26.6834C159.382 26.6279 159.532 26.6159 159.675 26.6491L169.127 28.8357C169.279 28.8714 169.416 28.9558 169.516 29.076L176.408 37.3927C176.503 37.5075 176.56 37.6493 176.57 37.7982C176.581 37.947 176.545 38.0954 176.467 38.2227C176.389 38.35 176.274 38.4497 176.136 38.508C175.999 38.5662 175.847 38.58 175.701 38.5475L165.703 36.3133C165.625 36.2957 165.55 36.2649 165.482 36.2223Z" fill="#F7A08C"/>
<path d="M158.082 31.3131L157.84 31.1617L160.032 27.6391L167.439 32.2527L167.287 32.4954L160.123 28.0332L158.082 31.3131Z" fill="#3F3D56"/>
<path d="M157.81 32.0527C158.126 32.0527 158.382 31.7965 158.382 31.4803C158.382 31.1642 158.126 30.908 157.81 30.908C157.494 30.908 157.238 31.1642 157.238 31.4803C157.238 31.7965 157.494 32.0527 157.81 32.0527Z" fill="#3F3D56"/>
<path d="M193.017 67.451C199.821 67.451 205.337 61.9328 205.337 55.1258C205.337 48.3188 199.821 42.8006 193.017 42.8006C186.213 42.8006 180.697 48.3188 180.697 55.1258C180.697 61.9328 186.213 67.451 193.017 67.451Z" fill="#2F2E41"/>
<path d="M201.558 61.5165L198.364 63.4691L201.861 69.1934L205.055 67.2408L201.558 61.5165Z" fill="#2F2E41"/>
<path d="M195.171 65.4217L191.977 67.3743L195.474 73.0986L198.668 71.146L195.171 65.4217Z" fill="#2F2E41"/>
<path d="M203.044 69.9329C204.514 69.0343 205.432 67.8588 205.096 67.3073C204.759 66.7559 203.294 67.0374 201.824 67.9361C200.355 68.8347 199.436 70.0102 199.773 70.5617C200.11 71.1131 201.574 70.8316 203.044 69.9329Z" fill="#2F2E41"/>
<path d="M196.576 73.705C198.045 72.8063 198.964 71.6308 198.627 71.0794C198.29 70.528 196.826 70.8095 195.356 71.7081C193.886 72.6068 192.967 73.7823 193.304 74.3337C193.641 74.8851 195.106 74.6036 196.576 73.705Z" fill="#2F2E41"/>
<path d="M186.09 53.0595C186.928 52.2216 185.445 49.3768 182.776 46.7055C180.108 44.0342 177.266 42.548 176.428 43.3859C175.589 44.2239 177.073 47.0687 179.741 49.74C182.409 52.4113 185.251 53.8975 186.09 53.0595Z" fill="#2F2E41"/>
<path d="M209.674 65.5727C210.648 64.8965 209.691 61.8338 207.539 58.7319C205.386 55.6301 202.851 53.6636 201.878 54.3398C200.904 55.0159 201.861 58.0786 204.014 61.1805C206.167 64.2824 208.701 66.2488 209.674 65.5727Z" fill="#2F2E41"/>
<path d="M189.244 55.8744C191.57 55.8744 193.455 53.9885 193.455 51.662C193.455 49.3356 191.57 47.4496 189.244 47.4496C186.919 47.4496 185.034 49.3356 185.034 51.662C185.034 53.9885 186.919 55.8744 189.244 55.8744Z" fill="white"/>
<path d="M187.814 51.6353C188.589 51.6353 189.218 51.0066 189.218 50.2311C189.218 49.4556 188.589 48.827 187.814 48.827C187.039 48.827 186.41 49.4556 186.41 50.2311C186.41 51.0066 187.039 51.6353 187.814 51.6353Z" fill="#3F3D56"/>
<path d="M183.822 58.6887C183.024 59.9975 184.088 61.768 186.198 62.6433C188.309 63.5186 190.667 63.1672 191.466 61.8585L191.469 61.8539C192.265 60.5443 190.718 59.5645 188.607 58.6905C186.495 57.8165 184.619 57.3792 183.822 58.6887Z" fill="white"/>
<path d="M188.883 39.65C189.983 35.2179 194.839 32.6096 199.729 33.8244C204.619 35.0391 207.692 39.6168 206.592 44.049C205.492 48.4811 201.842 48.4954 196.952 47.2807C192.062 46.0659 187.783 44.0821 188.883 39.65Z" fill="#E6E6E6"/>
</svg>
