<svg width="390" height="844" viewBox="0 0 390 844" fill="none" xmlns="http://www.w3.org/2000/svg">
    <defs>
        <linearGradient id="paint0_linear_1834_3018" x1="344" y1="226" x2="344" y2="350" gradientUnits="userSpaceOnUse">
            <stop stop-color="#4DC6A9"/>
            <stop offset="1" stop-color="#86C4CC"/>
        </linearGradient>
        <clipPath id="clip0_1834_3018">
            <rect width="390" height="844" fill="white"/>
        </clipPath>
    </defs>
    <g clip-path="url(#clip0_1834_3018)">
    <rect width="390" height="844" fill="#FDF7FE"/>
    <path d="M20.6811 108.743C48.1225 53.7348 131.141 77.8717 127.55 139.24V139.24C126.778 152.437 130.648 165.633 138.503 176.266L200.338 259.965C236.4 308.78 172.034 368.338 126.16 328.602L120.577 323.766C103.777 309.213 80.0055 305.86 59.835 315.198L21.2569 333.058C-27.2262 355.504 -76.9033 304.357 -53.0537 256.549L20.6811 108.743Z" fill="#FB5B5A"/>
    <path d="M151 33.6538C151 2.81204 174.217 -22.1901 202.856 -22.1901C231.496 -22.1901 254.713 2.81205 254.713 33.6538C254.713 33.6538 254.713 50.7878 254.713 58.5439C254.713 66.3 263.355 66.3 263.355 58.5439C263.355 50.7878 263.355 33.6538 263.355 33.6538C263.355 2.81204 286.572 -22.1901 315.212 -22.1901C343.851 -22.1901 367.068 2.81205 367.068 33.6538V225.574C367.068 260.081 341.092 288.054 309.049 288.054H292.715C300.045 288.054 304.06 288.054 292.715 288.054C289.294 288.054 278.13 283.612 271.744 277.841C264.451 271.25 259.457 262.926 257.763 257.505C253.95 267.673 250.137 271.948 243.147 277.841C237.724 282.412 225.353 288.054 220.904 288.054C216.456 288.054 202.67 288.054 196.694 288.054V288.054C171.458 288.054 151 267.596 151 242.36V33.6538Z" fill="#FFE27A" style="mix-blend-mode:multiply"/>
    <path d="M-21.865 632.569C-32.433 605.089 -18.7229 574.245 8.75723 563.677L150.996 508.976C175.376 499.601 202.741 511.764 212.117 536.144C218.011 551.471 215.404 568.101 206.439 580.648C221.439 583.944 234.548 594.472 240.473 609.879C249.33 632.91 238.992 658.88 216.731 669.524L210.301 672.599L216.721 670.701C240.625 663.635 265.947 676.121 274.894 699.387C284.371 724.03 272.077 751.69 247.433 761.167L106.167 815.493C78.4128 826.167 47.2611 812.32 36.5878 784.566C30.4501 768.606 32.4288 751.643 40.3635 738.059C25.4146 733.383 12.6011 722.192 6.49114 706.304C0.869354 691.686 2.11793 676.115 8.65507 663.152C-4.84091 657.929 -16.217 647.256 -21.865 632.569Z" fill="#9EA615"/>
    <g style="mix-blend-mode:multiply">
    <path d="M300 563C272.386 563 250 585.386 250 613V807C250 834.614 272.386 857 300 857C327.614 857 350 834.614 350 807V660C350 687.614 372.386 710 400 710C427.614 710 450 687.614 450 660C450 632.386 427.614 610 400 610C372.386 610 350 632.386 350 660V613C350 585.386 327.614 563 300 563Z" fill="#BBE0CE"/>
    </g>
    <g style="mix-blend-mode:multiply">
    <path d="M344 350C378.242 350 406 322.242 406 288C406 253.758 378.242 226 344 226C309.758 226 282 253.758 282 288C282 307.777 290.941 325.184 299.5 331C308.059 336.816 282 350 282 350H344Z" fill="url(#paint0_linear_1834_3018)"/>
    </g>
    <path d="M235.071 574.042L235.703 572.085L236.345 570.149L237.007 568.256L237.699 566.426L238.429 564.679L239.206 563.033L240.038 561.504L240.932 560.108L241.893 558.857L242.927 557.762L244.037 556.83L245.226 556.067L246.495 555.475L247.844 555.055L249.271 554.803L250.775 554.716L252.351 554.783L253.995 554.996L255.701 555.341L257.461 555.804L259.269 556.368L261.115 557.014L262.991 557.724L264.886 558.477L266.792 559.251L268.698 560.025L270.594 560.777L272.469 561.487L274.316 562.134L276.123 562.698L277.884 563.16L279.589 563.505L281.233 563.718L282.81 563.786L284.313 563.698L285.741 563.446L287.09 563.026L288.358 562.435L289.547 561.671L290.657 560.739L291.691 559.644L292.653 558.393L293.546 556.997L294.378 555.469L295.156 553.823L295.886 552.075L296.577 550.246L297.239 548.352L297.881 546.416L298.513 544.459L299.145 542.502L299.787 540.566L300.449 538.672L301.14 536.843L301.87 535.095L302.647 533.449L303.479 531.921L304.373 530.525L305.335 529.274L306.369 528.178L307.479 527.246L308.668 526.483L309.936 525.892L311.285 525.471L312.713 525.22L314.216 525.132L315.793 525.2L317.437 525.413L319.142 525.758L320.903 526.22L322.71 526.784L324.557 527.431L326.432 528.141L328.328 528.893L330.234 529.667L332.139 530.441L334.035 531.194L335.911 531.904L337.757 532.55L339.565 533.114L341.325 533.577L343.031 533.922L344.675 534.135L346.251 534.202L347.755 534.115L349.182 533.863L350.531 533.443L351.8 532.851L352.989 532.088L354.099 531.156L355.133 530.061L356.094 528.81L356.988 527.414L357.82 525.885L358.597 524.239L359.327 522.492L360.019 520.662L360.681 518.769L361.323 516.833L361.955 514.876" stroke="#003F5E" stroke-width="8" stroke-linecap="round"/>
    <path d="M235.071 545.042L235.703 543.085L236.345 541.149L237.007 539.256L237.699 537.426L238.429 535.679L239.206 534.033L240.038 532.504L240.932 531.108L241.893 529.857L242.927 528.762L244.037 527.83L245.226 527.067L246.495 526.475L247.844 526.055L249.271 525.803L250.775 525.716L252.351 525.783L253.995 525.996L255.701 526.341L257.461 526.804L259.269 527.368L261.115 528.014L262.991 528.724L264.886 529.477L266.792 530.251L268.698 531.025L270.594 531.777L272.469 532.487L274.316 533.134L276.123 533.698L277.884 534.16L279.589 534.505L281.233 534.718L282.81 534.786L284.313 534.698L285.741 534.446L287.09 534.026L288.358 533.435L289.547 532.671L290.657 531.739L291.691 530.644L292.653 529.393L293.546 527.997L294.378 526.469L295.156 524.823L295.886 523.075L296.577 521.246L297.239 519.352L297.881 517.416L298.513 515.459L299.145 513.502L299.787 511.566L300.449 509.672L301.14 507.843L301.87 506.095L302.647 504.449L303.479 502.921L304.373 501.525L305.335 500.274L306.369 499.178L307.479 498.246L308.668 497.483L309.936 496.892L311.285 496.471L312.713 496.22L314.216 496.132L315.793 496.2L317.437 496.413L319.142 496.758L320.903 497.22L322.71 497.784L324.557 498.431L326.432 499.141L328.328 499.893L330.234 500.667L332.139 501.441L334.035 502.194L335.911 502.904L337.757 503.55L339.565 504.114L341.325 504.577L343.031 504.922L344.675 505.135L346.251 505.202L347.755 505.115L349.182 504.863L350.531 504.443L351.8 503.851L352.989 503.088L354.099 502.156L355.133 501.061L356.094 499.81L356.988 498.414L357.82 496.885L358.597 495.239L359.327 493.492L360.019 491.662L360.681 489.769L361.323 487.833L361.955 485.876" stroke="#003F5E" stroke-width="8" stroke-linecap="round"/>
    <path d="M49 198L51.6515 195.877C54.303 193.754 59.6061 189.509 64.9091 182.036C70.2121 174.564 75.5152 163.865 80.8182 158.515C86.1212 153.165 91.4242 153.164 96.7273 155.449C102.03 157.734 107.333 162.306 112.636 168.946C117.939 175.586 123.242 184.295 128.545 188.419C133.848 192.543 139.152 192.081 144.455 186.024C149.758 179.966 155.061 168.313 160.364 168.191C165.667 168.069 170.97 179.478 176.273 182.429C181.576 185.379 186.879 179.872 192.182 178.952C197.485 178.033 202.788 181.702 208.091 183.184C213.394 184.666 218.697 183.961 221.348 183.609L224 183.256" stroke="#F7A08C" stroke-width="8" stroke-linecap="round"/>
    </g>
</svg>
