<svg width="145" height="107" viewBox="0 0 145 107" fill="none" xmlns="http://www.w3.org/2000/svg">
<path d="M61.96 43.4C61.96 53.64 66.68 58.92 74.68 59.4V53.48C70.36 52.52 68.36 49.32 68.36 42.12V9.31999H61.96V28.04H50.68V9.8H44.28V59.4H50.68V33.96H61.96V43.4ZM0.92 59.4C10.04 59.32 17.64 54.76 21 47.4C24.44 54.6 31.96 59 40.92 59.08V53.32C30.6 53 24.28 46.36 24.28 35.8V24.2H17.64V35.8C17.64 46.52 11.32 53.16 0.92 53.48V59.4ZM126.594 42.6C126.594 53.8 131.794 59.4 141.394 59.4H143.474V53.48H141.474C135.074 53.48 133.154 49.24 133.154 42.36V33.24H144.354V27.32H133.154V9.31999H126.594V42.6ZM94.6738 53.48C91.7938 53.48 90.5138 52.12 90.5138 48.68V42.84H112.754V25.08C112.754 22.76 111.474 21.48 109.154 21.48H83.9538V27.4H106.194V37H83.9538V48.44C83.9538 51.08 84.4338 52.44 85.2338 53.48H74.5137V59.4H116.914V53.48H94.6738Z" fill="black"/>
<path d="M3.94739 78.916V80.788C3.94739 82.672 3.34739 84.664 1.69139 85.66L2.67539 86.836C4.46339 85.756 5.17139 83.308 5.17139 80.788V78.916H3.94739ZM4.25939 78.916V80.668C4.25939 83.212 4.82339 85.504 6.62339 86.512L7.54739 85.252C5.99939 84.4 5.49539 82.588 5.49539 80.668V78.916H4.25939ZM9.92339 77.956V89.068H11.4474V77.956H9.92339ZM8.59139 82.276V83.56H10.4274V82.276H8.59139ZM7.52339 78.124V88.564H9.02339V78.124H7.52339ZM14.3865 86.548V87.844H24.4425V86.548H14.3865ZM18.5985 84.448V87.076H20.1945V84.448H18.5985ZM15.5145 78.676V79.936H21.7305V81.124H15.5385V84.244H17.1225V82.372H23.3145V78.676H15.5145ZM15.5385 83.608V84.892H23.5665V83.608H15.5385ZM26.8535 83.356V84.616H36.9215V83.356H26.8535ZM31.1615 84.184V86.524H32.7815V84.184H31.1615ZM28.0295 87.592V88.876H35.8175V87.592H28.0295ZM28.0295 85.552V87.916H29.6375V85.552H28.0295ZM31.8815 78.16C29.4815 78.16 27.8855 79.06 27.8855 80.464C27.8855 81.88 29.4815 82.768 31.8815 82.768C34.2695 82.768 35.8775 81.88 35.8775 80.464C35.8775 79.06 34.2695 78.16 31.8815 78.16ZM31.8815 79.42C33.2855 79.42 34.1615 79.78 34.1615 80.464C34.1615 81.148 33.2855 81.496 31.8815 81.496C30.4775 81.496 29.6015 81.148 29.6015 80.464C29.6015 79.78 30.4775 79.42 31.8815 79.42ZM43.8273 79V86.368H49.1433V79H43.8273ZM47.5713 80.248V85.108H45.3993V80.248H47.5713ZM50.5953 77.956V89.068H52.2033V77.956H50.5953ZM51.8433 82.144V83.464H53.8113V82.144H51.8433ZM60.9984 78.16C58.5504 78.16 56.9784 78.988 56.9784 80.332C56.9784 81.676 58.5504 82.492 60.9984 82.492C63.4464 82.492 65.0184 81.676 65.0184 80.332C65.0184 78.988 63.4464 78.16 60.9984 78.16ZM60.9984 79.396C62.5104 79.396 63.3744 79.696 63.3744 80.332C63.3744 80.956 62.5104 81.268 60.9984 81.268C59.4744 81.268 58.6224 80.956 58.6224 80.332C58.6224 79.696 59.4744 79.396 60.9984 79.396ZM57.1344 85.156V88.948H64.8144V85.156H57.1344ZM63.2544 86.416V87.688H58.7064V86.416H63.2544ZM55.9704 83.128V84.388H66.0144V83.128H55.9704ZM68.9655 90.568C70.4295 90.088 71.2335 89.02 71.2335 87.604C71.2335 86.524 70.7775 85.876 69.9735 85.876C69.3375 85.876 68.8215 86.284 68.8215 86.92C68.8215 87.58 69.3495 87.964 69.9255 87.964C70.1895 87.964 70.4295 87.88 70.6095 87.7L69.9855 86.668L70.0455 87.916C70.0575 88.624 69.5415 89.26 68.6055 89.608L68.9655 90.568ZM80.0026 78.916V80.788C80.0026 82.672 79.4026 84.664 77.7466 85.66L78.7306 86.836C80.5186 85.756 81.2266 83.308 81.2266 80.788V78.916H80.0026ZM80.3146 78.916V80.668C80.3146 83.212 80.8786 85.504 82.6786 86.512L83.6026 85.252C82.0546 84.4 81.5506 82.588 81.5506 80.668V78.916H80.3146ZM85.9786 77.956V89.068H87.5026V77.956H85.9786ZM84.6466 82.276V83.56H86.4826V82.276H84.6466ZM83.5786 78.124V88.564H85.0786V78.124H83.5786ZM90.4416 86.548V87.844H100.498V86.548H90.4416ZM94.6536 84.448V87.076H96.2496V84.448H94.6536ZM91.5696 78.676V79.936H97.7856V81.124H91.5936V84.244H93.1776V82.372H99.3696V78.676H91.5696ZM91.5936 83.608V84.892H99.6216V83.608H91.5936ZM102.909 83.356V84.616H112.977V83.356H102.909ZM107.217 84.184V86.524H108.837V84.184H107.217ZM104.085 87.592V88.876H111.873V87.592H104.085ZM104.085 85.552V87.916H105.693V85.552H104.085ZM107.937 78.16C105.537 78.16 103.941 79.06 103.941 80.464C103.941 81.88 105.537 82.768 107.937 82.768C110.325 82.768 111.933 81.88 111.933 80.464C111.933 79.06 110.325 78.16 107.937 78.16ZM107.937 79.42C109.341 79.42 110.217 79.78 110.217 80.464C110.217 81.148 109.341 81.496 107.937 81.496C106.533 81.496 105.657 81.148 105.657 80.464C105.657 79.78 106.533 79.42 107.937 79.42ZM127.286 77.944V89.092H128.87V77.944H127.286ZM125.378 81.856V83.152H127.466V81.856H125.378ZM120.05 85.288V86.584H120.938C122.81 86.584 124.25 86.536 125.858 86.284L125.714 85.012C124.142 85.264 122.774 85.288 120.938 85.288H120.05ZM120.05 78.88V85.696H121.634V80.176H125.198V78.88H120.05ZM121.274 81.976V83.224H124.814V81.976H121.274ZM137.978 80.824V82.108H140.57V80.824H137.978ZM139.73 77.968V86.068H141.326V77.968H139.73ZM133.994 87.604V88.876H141.578V87.604H133.994ZM133.994 85.384V88.36H135.59V85.384H133.994ZM134.594 79.42V80.116C134.594 81.52 133.802 82.972 131.966 83.572L132.77 84.844C134.906 84.136 135.89 82.204 135.89 80.116V79.42H134.594ZM134.93 79.42V80.116C134.93 82.096 135.878 83.944 137.942 84.628L138.722 83.38C136.97 82.792 136.214 81.412 136.214 80.116V79.42H134.93ZM132.398 78.712V79.972H138.374V78.712H132.398Z" fill="black"/>
</svg>
